<?xml version="1.0" encoding="utf-8"?>
<!-- Generator: Adobe Illustrator 27.3.1, SVG Export Plug-In . SVG Version: 6.00 Build 0)  -->
<svg version="1.1" id="Layer_1" xmlns="http://www.w3.org/2000/svg" xmlns:xlink="http://www.w3.org/1999/xlink" x="0px" y="0px"
	 viewBox="0 0 800 800" style="enable-background:new 0 0 800 800;" xml:space="preserve">
<path d="M267.6,643.8c0,3.5-3.5,6-8.5,6c-5,0-9,0-9-6c0-6,4-6,8.5-6C263.1,637.8,267.6,640.3,267.6,643.8z M217.6,636.3
	c0,3.5,0,7.5,7,8.5c1.8,0.9,3.8,1,5.7,0.3c1.9-0.7,3.4-2,4.3-3.8c0-3.5,0-7-7-8.5C220.6,631.3,218.6,632.8,217.6,636.3z
	 M288.6,633.8c-4.5,0-7.5,4-7,8c0.5,4,4.5,5.5,9.5,4.5c5-1,7.5-4.5,7-8C297.5,634.8,293.5,633.3,288.6,633.8z M395,0
	c-52.7-0.5-105,9.7-153.7,29.9s-92.8,50-129.7,87.7C74.8,155.3,45.9,200,26.7,249.1C7.6,298.2-1.5,350.7,0.1,403.4
	c-1.4,86.3,24.2,170.9,73.2,242s119,125,200.2,154.4c20.5,3.5,28-9.5,28-20c0-10.5,0-67,0-100c0,0-113,25-137-50
	c0,0-18-50-44.5-60.5c0,0-37-26,2.5-25.5c12.9,1.7,25.3,6.5,36,13.9c10.8,7.4,19.6,17.2,25.9,28.6c5.2,10.3,12.5,19.3,21.4,26.7
	c8.9,7.3,19.1,12.8,30.2,16c11,3.2,22.6,4.2,34.1,2.8c11.4-1.4,22.4-5.1,32.4-11c1.9-20.9,10.9-40.5,25.5-55.5
	c-90-10.5-180.9-23.5-180.9-182.9c-1-18,1.9-36,8.5-52.8c6.6-16.8,16.6-32,29.5-44.6c-12.2-36.6-10.7-76.3,4-112
	c34-11,111.5,44.5,111.5,44.5c66.2-18.7,136.3-18.7,202.4,0c0,0,77.5-55.5,111.5-44.5c15.1,35.6,16.5,75.4,4,112
	c13.4,12.4,23.9,27.5,31.1,44.3c7.1,16.8,10.7,34.9,10.4,53.1c0,160-95,172.4-184.9,182.9c9,10.1,15.9,22,20.2,34.9
	c4.3,12.9,5.9,26.5,4.8,40.1c0,56,0,125,0,138.5c0,3.4,0.7,6.7,2.3,9.7c1.5,3,3.8,5.6,6.5,7.6c2.7,2,5.9,3.2,9.3,3.7
	c3.3,0.5,6.8,0.1,9.9-1c81-29.1,150.9-82.9,199.7-153.9c48.8-70.9,74.1-155.4,72.2-241.5c0.5-53.2-9.7-106-29.9-155.3
	s-50-94-87.7-131.5C644.6,79,599.7,49.4,550.4,29.3C501.1,9.3,448.2-0.6,395,0z M157.1,570.4c0,0,0,5.5,0,8.5c0.6,0.6,1.2,1,1.9,1.3
	c0.7,0.3,1.5,0.5,2.3,0.5c0.8,0,1.6-0.2,2.3-0.5c0.7-0.3,1.4-0.7,1.9-1.3c0,0,0-5.5,0-9C165.6,566.4,159.1,568.4,157.1,570.4z
	 M139.6,556.9c0,0,0,5,3.5,6.5c0.4,0.5,1,0.9,1.6,1.2c0.6,0.3,1.3,0.4,1.9,0.4c0.7,0,1.3-0.2,1.9-0.4c0.6-0.3,1.1-0.7,1.6-1.2
	c0,0,0-5-3.5-6.5C143.1,555.4,140.6,555.4,139.6,556.9z M189.6,615.8c0,0,0,7,0,10.5c0,3.5,8.5,4,10.5,0s0-7,0-10.5
	c0-3.5-6.5-2.5-8.5,0H189.6z M171.1,591.3c0,0,0,6,0,10c0,4,7,5.5,9.5,4c1.3-1.5,2-3.3,2-5.2c0-1.9-0.7-3.8-2-5.2
	C178.1,590.8,174.1,589.4,171.1,591.3z"/>
</svg>
