<?xml version="1.0" encoding="utf-8"?>
<!-- Generator: Adobe Illustrator 27.3.1, SVG Export Plug-In . SVG Version: 6.00 Build 0)  -->
<svg version="1.1" id="Layer_1" xmlns="http://www.w3.org/2000/svg" xmlns:xlink="http://www.w3.org/1999/xlink" x="0px" y="0px"
	 viewBox="0 0 800 800" style="enable-background:new 0 0 800 800;" xml:space="preserve">
<style type="text/css">
	.st0{fill-rule:evenodd;clip-rule:evenodd;fill:#FFFFFF;}
</style>
<path class="st0" d="M0,266.7C0,193,59.7,133.3,133.3,133.3h533.3c73.6,0,133.3,59.7,133.3,133.3v266.7
	c0,73.6-59.7,133.3-133.3,133.3H133.3C59.7,666.7,0,607,0,533.3V266.7z M133.3,200c-36.8,0-66.7,29.8-66.7,66.7v266.7
	c0,36.8,29.8,66.7,66.7,66.7h533.3c36.8,0,66.7-29.8,66.7-66.7V266.7c0-36.8-29.8-66.7-66.7-66.7H133.3z M189.5,268.4
	c13.6-4.5,28.6,0.1,37.2,11.6l73.3,97.8l73.3-97.8c8.6-11.5,23.6-16.2,37.2-11.6c13.6,4.5,22.8,17.3,22.8,31.6v200
	c0,18.4-14.9,33.3-33.3,33.3c-18.4,0-33.3-14.9-33.3-33.3V400l-40,53.3c-6.3,8.4-16.2,13.3-26.7,13.3s-20.4-4.9-26.7-13.3l-40-53.3
	v100c0,18.4-14.9,33.3-33.3,33.3s-33.3-14.9-33.3-33.3V300C166.7,285.7,175.8,272.9,189.5,268.4z M600,300
	c0-18.4-14.9-33.3-33.3-33.3s-33.3,14.9-33.3,33.3v119.5l-9.8-9.8c-13-13-34.1-13-47.1,0c-13,13-13,34.1,0,47.1l66.7,66.7
	c13,13,34.1,13,47.1,0l66.7-66.7c13-13,13-34.1,0-47.1c-13-13-34.1-13-47.1,0l-9.8,9.8V300z"/>
</svg>
