<?xml version="1.0" encoding="utf-8"?>
<!-- Generator: Adobe Illustrator 27.3.1, SVG Export Plug-In . SVG Version: 6.00 Build 0)  -->
<svg version="1.1" id="Layer_1" xmlns="http://www.w3.org/2000/svg" xmlns:xlink="http://www.w3.org/1999/xlink" x="0px" y="0px"
	 viewBox="0 0 800 800" style="enable-background:new 0 0 800 800;" xml:space="preserve">
<style type="text/css">
	.st0{fill-rule:evenodd;clip-rule:evenodd;fill:#FFFFFF;}
	.st1{fill:#FFFFFF;}
</style>
<path class="st0" d="M700,266.7c0-55.2-44.8-100-100-100H333.3c-55.2,0-100,44.8-100,100v400c0,55.2,44.8,100,100,100H600
	c55.2,0,100-44.8,100-100V266.7z M633.3,266.7c0-18.4-14.9-33.3-33.3-33.3H333.3c-18.4,0-33.3,14.9-33.3,33.3v400
	c0,18.4,14.9,33.3,33.3,33.3H600c18.4,0,33.3-14.9,33.3-33.3V266.7z"/>
<path class="st1" d="M200,100h333.3c18.4,0,33.3-14.9,33.3-33.3s-14.9-33.3-33.3-33.3H200c-55.2,0-100,44.8-100,100V600
	c0,18.4,14.9,33.3,33.3,33.3s33.3-14.9,33.3-33.3V133.3C166.7,114.9,181.6,100,200,100z"/>
</svg>
