<svg id="svg" version="1.1" xmlns="http://www.w3.org/2000/svg" xmlns:xlink="http://www.w3.org/1999/xlink" width="400" height="400" viewBox="0, 0, 400,400"><g id="svgg"><path id="path0" d="M216.478 46.697 C 219.559 46.833,220.612 47.486,219.820 48.768 C 219.692 48.974,219.996 49.201,220.494 49.271 C 222.071 49.495,222.033 52.000,220.453 52.000 C 219.516 52.000,219.228 51.804,219.128 51.100 C 219.007 50.252,218.790 50.193,215.360 50.086 L 211.721 49.972 211.463 53.286 C 211.076 58.259,211.148 65.121,211.590 65.394 C 211.805 65.527,213.318 65.514,214.953 65.366 L 217.925 65.096 218.162 63.648 C 218.293 62.852,218.513 61.345,218.651 60.300 L 218.902 58.400 217.038 58.400 C 214.988 58.400,214.534 57.913,214.970 56.179 C 215.324 54.766,219.318 54.824,219.521 56.245 C 219.587 56.710,220.108 57.303,220.678 57.563 C 221.698 58.027,221.710 58.085,221.457 61.078 C 221.316 62.751,221.200 64.548,221.200 65.070 C 221.200 65.715,220.879 66.142,220.200 66.400 C 219.650 66.609,219.200 67.035,219.200 67.347 C 219.200 68.089,218.052 68.290,214.400 68.185 C 210.369 68.069,210.521 68.106,210.284 67.200 C 210.159 66.721,209.738 66.400,209.237 66.400 C 208.418 66.400,208.399 66.233,208.353 58.700 C 208.315 52.472,208.234 51.421,207.929 53.200 C 207.721 54.410,207.607 58.499,207.675 62.287 L 207.800 69.173 209.937 71.336 C 213.011 74.449,219.608 75.368,222.660 73.109 C 222.936 72.904,223.699 73.094,224.572 73.584 C 226.733 74.798,230.142 74.551,231.223 73.101 C 231.345 72.937,232.064 73.441,232.820 74.220 C 234.574 76.030,236.131 76.800,238.038 76.800 C 238.871 76.800,239.664 76.980,239.800 77.200 C 239.936 77.420,240.476 77.600,241.000 77.600 C 241.524 77.600,242.064 77.780,242.200 78.000 C 242.336 78.220,242.966 78.400,243.600 78.400 C 244.234 78.400,244.864 78.220,245.000 78.000 C 245.488 77.211,246.320 77.624,246.961 78.974 C 247.670 80.468,249.497 81.600,251.199 81.600 C 252.273 81.600,253.273 82.418,253.707 83.650 C 254.080 84.707,259.554 87.200,261.504 87.200 C 262.631 87.200,263.200 87.375,263.200 87.721 C 263.200 88.858,265.342 92.474,266.211 92.804 C 266.712 92.995,267.233 93.330,267.369 93.550 C 268.192 94.882,273.936 95.875,274.600 94.800 C 274.736 94.580,275.248 94.400,275.737 94.400 C 276.631 94.400,280.800 90.584,280.800 89.766 C 280.800 89.541,281.442 88.737,282.226 87.978 C 285.207 85.097,285.825 80.922,283.845 77.037 C 283.154 75.680,282.917 74.716,283.077 73.913 C 283.580 71.400,281.396 68.787,278.830 68.832 C 277.824 68.849,277.225 68.954,277.500 69.065 C 278.385 69.422,278.034 70.823,276.800 71.861 C 275.203 73.205,275.277 73.639,277.400 75.379 C 279.132 76.798,279.669 78.063,278.774 78.616 C 278.494 78.789,278.576 79.131,279.013 79.615 C 279.831 80.518,279.887 80.425,275.470 85.500 C 271.716 89.812,271.636 89.876,270.891 89.131 C 270.537 88.777,270.176 88.774,269.421 89.118 C 268.533 89.522,268.150 89.387,266.010 87.910 C 263.837 86.411,262.805 84.800,264.018 84.800 C 264.270 84.800,264.345 84.283,264.208 83.500 C 264.000 82.323,264.248 81.898,266.834 79.000 C 268.404 77.240,270.519 74.720,271.532 73.400 C 272.546 72.080,273.614 70.754,273.906 70.452 C 274.982 69.345,272.032 67.340,269.000 67.117 C 267.635 67.017,267.380 66.853,267.265 66.000 C 267.006 64.081,265.708 63.195,263.230 63.246 C 262.004 63.272,261.315 63.375,261.700 63.476 C 262.888 63.786,262.505 64.801,259.469 69.380 C 257.858 71.811,256.193 74.398,255.769 75.130 L 255.000 76.459 256.181 77.330 C 258.566 79.087,259.440 79.253,260.042 78.061 C 260.337 77.477,261.242 75.999,262.053 74.776 C 264.057 71.751,265.587 69.147,265.870 68.279 C 266.178 67.332,268.930 67.468,269.114 68.439 C 269.215 68.969,263.487 78.409,261.917 80.300 C 261.645 80.627,261.031 80.785,260.454 80.674 C 259.888 80.566,259.211 80.732,258.883 81.060 C 258.566 81.377,258.193 81.574,258.054 81.499 C 257.914 81.423,256.745 80.853,255.456 80.231 C 253.177 79.132,253.118 79.063,253.329 77.758 C 253.449 77.019,253.379 76.311,253.174 76.184 C 252.459 75.742,252.813 74.770,254.956 71.296 C 257.915 66.499,258.800 64.871,258.800 64.221 C 258.800 63.916,259.002 63.599,259.248 63.517 C 259.877 63.308,258.153 59.628,257.281 59.319 C 255.958 58.851,255.200 57.867,255.200 56.616 C 255.200 54.524,253.073 52.788,250.581 52.846 C 249.491 52.872,248.915 52.975,249.300 53.076 C 250.167 53.302,250.217 55.079,249.387 56.176 C 248.270 57.654,249.254 58.709,252.391 59.398 C 253.849 59.718,254.162 60.150,253.641 61.123 C 253.340 61.686,253.427 62.017,254.010 62.516 C 254.909 63.286,254.892 63.348,251.642 70.977 C 249.305 76.462,249.212 76.590,247.829 76.243 C 246.748 75.972,246.490 74.999,247.153 73.695 C 247.348 73.313,247.685 72.550,247.903 72.000 C 248.591 70.262,250.052 67.081,251.236 64.741 C 252.532 62.180,252.507 62.127,249.491 60.998 C 247.174 60.132,247.724 59.498,244.793 66.409 C 243.442 69.594,242.113 72.432,241.839 72.715 C 240.645 73.951,239.075 71.729,239.966 70.064 C 240.205 69.618,240.400 68.881,240.400 68.426 C 240.400 67.972,240.580 67.600,240.800 67.600 C 241.020 67.600,241.200 67.251,241.200 66.824 C 241.200 66.397,241.356 65.951,241.546 65.833 C 241.737 65.715,241.806 65.165,241.700 64.610 C 241.570 63.930,241.685 63.599,242.053 63.596 C 242.666 63.592,245.200 58.442,245.200 57.200 C 245.200 56.760,245.380 56.400,245.600 56.400 C 246.286 56.400,246.038 55.416,245.224 54.908 C 244.798 54.642,244.138 53.743,243.758 52.912 C 242.493 50.140,241.733 49.593,239.230 49.654 C 238.004 49.684,237.405 49.787,237.900 49.882 C 238.876 50.070,239.152 51.488,238.366 52.274 C 237.442 53.198,238.126 54.582,239.700 54.971 C 241.225 55.347,241.559 56.012,240.816 57.188 C 240.500 57.687,240.228 57.699,239.024 57.263 C 236.839 56.473,236.700 56.700,235.164 63.545 C 234.140 68.113,234.338 68.800,236.676 68.800 C 237.436 68.800,237.600 69.013,237.600 70.000 C 237.600 71.127,237.509 71.198,236.100 71.160 C 233.471 71.090,232.592 70.667,232.670 69.511 C 232.719 68.793,232.506 68.416,231.972 68.277 C 231.044 68.034,231.270 66.100,232.827 60.972 C 233.032 60.296,233.200 59.362,233.200 58.895 C 233.200 58.429,233.380 57.936,233.600 57.800 C 234.285 57.377,234.039 56.504,233.172 56.277 C 231.782 55.913,232.241 53.441,233.730 53.271 C 234.821 53.146,234.851 53.082,234.588 51.471 C 234.161 48.855,233.108 47.989,230.430 48.054 C 229.204 48.084,228.605 48.187,229.100 48.282 C 230.117 48.478,230.144 48.541,229.629 49.505 C 229.425 49.887,229.156 50.526,229.032 50.926 C 228.715 51.940,226.266 51.716,226.065 50.654 C 225.910 49.836,223.688 47.738,222.110 46.919 C 221.454 46.579,219.780 46.428,217.254 46.480 C 213.437 46.560,213.430 46.562,216.478 46.697 M228.508 52.773 C 229.324 53.523,226.239 68.995,225.245 69.135 C 224.143 69.291,223.546 68.560,223.831 67.403 C 223.940 66.961,224.214 64.800,224.439 62.600 C 225.441 52.810,225.737 51.747,227.324 52.226 C 227.806 52.371,228.339 52.617,228.508 52.773 M194.500 53.087 C 195.453 53.231,195.600 53.436,195.600 54.619 C 195.600 55.784,195.438 56.020,194.500 56.226 C 192.620 56.638,192.389 56.761,192.133 57.491 C 191.996 57.881,191.521 58.493,191.076 58.851 C 190.331 59.452,190.307 59.653,190.760 61.451 C 191.030 62.523,191.405 64.030,191.594 64.800 C 191.782 65.570,192.131 66.941,192.368 67.846 C 193.123 70.725,192.106 72.666,190.620 71.180 C 190.226 70.786,188.090 62.939,187.713 60.496 C 187.602 59.779,187.351 59.094,187.156 58.973 C 186.960 58.852,186.786 58.088,186.768 57.276 C 186.751 56.464,186.646 56.025,186.535 56.300 C 186.416 56.594,185.606 56.800,184.567 56.800 C 183.595 56.800,182.800 56.907,182.800 57.038 C 182.800 57.739,184.289 62.305,185.694 65.915 C 187.227 69.853,187.266 70.064,186.600 70.800 C 186.217 71.224,185.998 71.818,186.114 72.121 C 186.437 72.962,185.991 73.360,183.647 74.319 C 180.965 75.416,180.153 75.427,179.876 74.370 C 179.695 73.677,179.527 73.611,178.856 73.970 C 177.663 74.609,177.637 74.587,176.564 72.100 C 174.830 68.076,174.714 67.813,174.353 67.105 C 174.159 66.723,174.000 66.138,174.000 65.805 C 174.000 65.472,173.820 65.200,173.600 65.200 C 173.380 65.200,173.200 64.840,173.200 64.400 C 173.200 63.960,173.020 63.600,172.800 63.600 C 172.580 63.600,172.400 63.251,172.400 62.824 C 172.400 62.397,172.259 61.960,172.087 61.853 C 171.914 61.747,171.779 62.141,171.787 62.730 C 171.800 63.765,171.718 63.804,169.300 63.919 C 167.436 64.008,166.800 64.186,166.800 64.619 C 166.800 65.307,167.269 65.371,167.873 64.767 C 168.503 64.137,169.879 65.108,170.148 66.374 C 170.268 66.938,171.444 69.198,172.760 71.395 C 174.909 74.983,175.092 75.457,174.557 76.048 C 174.181 76.463,174.054 77.075,174.212 77.705 C 174.626 79.355,169.476 82.297,168.414 81.017 C 168.123 80.667,167.505 80.507,166.865 80.617 C 165.890 80.785,165.581 80.456,163.200 76.705 C 159.768 71.298,157.410 69.071,154.822 68.793 C 152.992 68.597,152.500 69.073,153.573 70.000 C 153.700 70.110,154.546 71.190,155.452 72.400 C 156.358 73.610,158.223 75.860,159.596 77.400 C 163.723 82.028,164.174 82.708,163.589 83.413 C 163.213 83.867,163.192 84.264,163.509 84.960 C 163.887 85.790,163.745 86.074,162.268 87.455 C 158.108 91.340,158.207 91.277,157.071 90.759 C 156.252 90.387,155.893 90.391,155.427 90.778 C 154.660 91.414,151.622 89.398,151.609 88.244 C 151.588 86.437,153.806 85.916,155.200 87.400 C 156.437 88.717,156.726 88.672,158.400 86.900 C 159.179 86.075,160.162 85.207,160.585 84.971 C 161.812 84.286,161.718 83.907,159.705 81.416 C 157.275 78.410,157.456 78.424,154.419 81.006 C 151.831 83.206,150.934 83.574,150.127 82.767 C 149.817 82.457,149.459 82.481,148.863 82.854 C 148.107 83.326,147.828 83.174,145.783 81.186 C 144.547 79.984,143.280 78.762,142.968 78.471 C 140.819 76.471,142.795 82.663,144.981 84.782 C 145.761 85.538,146.405 86.347,146.410 86.578 C 146.416 86.810,147.541 87.540,148.910 88.200 C 151.136 89.273,151.445 89.569,151.827 91.000 C 152.653 94.091,153.106 94.737,155.083 95.645 C 157.308 96.667,160.562 97.109,160.972 96.446 C 161.123 96.201,161.659 96.000,162.162 96.000 C 162.665 96.000,163.402 95.640,163.800 95.200 C 164.198 94.760,164.732 94.400,164.987 94.400 C 166.106 94.400,169.600 89.349,169.600 87.732 C 169.600 87.371,170.157 87.200,171.332 87.200 C 174.465 87.200,178.516 84.562,179.591 81.823 L 180.127 80.457 182.807 80.682 C 184.597 80.832,185.580 80.756,185.767 80.453 C 185.921 80.204,186.369 80.000,186.762 80.000 C 187.806 80.000,189.701 78.970,190.790 77.810 C 191.566 76.985,192.114 76.800,193.791 76.800 C 196.958 76.800,198.400 75.143,198.400 71.505 C 198.400 70.043,198.220 68.736,198.000 68.600 C 197.780 68.464,197.600 67.889,197.600 67.323 C 197.600 66.756,197.390 65.593,197.134 64.737 C 196.664 63.169,198.007 60.807,199.375 60.797 C 200.019 60.792,200.800 58.821,200.800 57.200 C 200.800 54.025,199.292 52.761,195.620 52.860 C 194.399 52.893,193.895 52.995,194.500 53.087 M190.000 55.800 C 190.000 56.130,190.180 56.400,190.400 56.400 C 190.620 56.400,190.800 56.130,190.800 55.800 C 190.800 55.470,190.620 55.200,190.400 55.200 C 190.180 55.200,190.000 55.470,190.000 55.800 M179.200 59.609 C 179.200 59.937,178.620 59.995,177.246 59.806 L 175.292 59.538 175.630 61.351 C 176.803 67.630,180.228 73.853,181.600 72.200 C 181.874 71.870,182.301 71.594,182.549 71.587 C 183.834 71.551,184.552 70.434,184.017 69.305 C 183.729 68.697,183.361 67.840,183.200 67.400 C 182.763 66.206,181.953 64.292,181.553 63.505 C 181.359 63.123,181.200 62.538,181.200 62.205 C 181.200 61.872,181.020 61.600,180.800 61.600 C 180.580 61.600,180.400 61.317,180.400 60.971 C 180.400 60.626,180.130 60.073,179.800 59.743 C 179.420 59.363,179.200 59.314,179.200 59.609 M164.480 68.289 C 162.323 69.688,162.324 69.694,165.426 74.842 C 168.343 79.685,168.221 79.592,169.838 78.198 C 170.477 77.646,171.315 77.094,171.700 76.971 C 172.653 76.665,172.585 76.223,171.286 74.272 C 170.673 73.352,169.656 71.610,169.026 70.400 C 167.081 66.665,167.025 66.639,164.480 68.289 M150.239 72.242 C 149.838 73.289,149.974 74.541,150.627 75.800 C 150.997 76.512,151.045 76.797,150.745 76.500 C 150.467 76.225,149.837 76.000,149.344 76.000 C 148.851 76.000,148.336 75.820,148.200 75.600 C 148.064 75.380,147.198 75.221,146.276 75.246 C 145.354 75.272,144.915 75.375,145.300 75.476 C 145.685 75.576,146.000 75.940,146.000 76.284 C 146.000 77.660,150.378 82.245,150.406 80.900 C 150.419 80.292,152.639 78.102,153.907 77.448 C 155.492 76.629,155.344 76.221,152.477 73.510 C 150.913 72.030,150.426 71.755,150.239 72.242 M270.000 79.449 C 265.853 84.102,265.981 83.737,267.836 85.637 C 269.720 87.566,269.968 87.570,271.422 85.700 C 272.064 84.875,273.724 83.007,275.112 81.550 L 277.635 78.899 275.761 77.250 C 273.422 75.190,273.988 74.974,270.000 79.449 M212.800 79.759 C 208.621 80.198,208.647 80.201,218.187 80.307 C 223.771 80.370,227.939 80.579,228.167 80.807 C 228.383 81.023,229.424 81.200,230.480 81.200 C 231.536 81.200,232.400 81.380,232.400 81.600 C 232.400 81.820,233.120 82.000,234.000 82.000 C 234.880 82.000,235.600 82.180,235.600 82.400 C 235.600 82.620,236.129 82.800,236.776 82.800 C 237.423 82.800,238.064 82.980,238.200 83.200 C 238.336 83.420,238.799 83.600,239.229 83.600 C 239.659 83.600,240.323 83.759,240.705 83.953 C 241.087 84.148,241.850 84.486,242.400 84.705 C 246.246 86.239,251.496 89.162,256.905 92.781 C 260.373 95.102,264.103 97.540,265.194 98.200 C 267.800 99.777,267.890 100.185,265.944 101.594 C 265.045 102.246,263.475 103.479,262.455 104.335 C 261.435 105.191,258.980 107.249,257.000 108.909 C 255.020 110.568,252.688 112.662,251.819 113.563 C 249.407 116.060,249.200 115.859,249.200 111.024 C 249.200 108.671,249.025 106.739,248.800 106.600 C 248.580 106.464,248.400 105.911,248.400 105.371 C 248.400 104.831,248.242 104.077,248.049 103.695 C 247.856 103.313,247.397 102.300,247.029 101.444 C 241.704 89.061,220.246 83.052,202.200 88.890 C 183.744 94.860,168.566 112.523,164.469 132.800 C 164.224 134.010,163.800 135.990,163.525 137.200 C 163.209 138.596,163.027 142.615,163.027 148.200 C 163.027 153.785,163.209 157.804,163.525 159.200 C 163.800 160.410,164.221 162.390,164.462 163.600 C 164.703 164.810,165.237 166.802,165.650 168.027 C 166.062 169.251,166.400 170.461,166.400 170.715 C 166.400 171.232,167.732 174.311,169.899 178.800 C 175.642 190.701,186.398 200.992,198.000 205.689 C 198.550 205.911,199.313 206.252,199.695 206.447 C 200.077 206.641,200.741 206.800,201.171 206.800 C 201.601 206.800,202.064 206.980,202.200 207.200 C 202.336 207.420,202.966 207.600,203.600 207.600 C 204.234 207.600,204.864 207.780,205.000 208.000 C 205.136 208.220,206.036 208.400,207.000 208.400 C 207.964 208.400,208.864 208.580,209.000 208.800 C 209.364 209.389,224.400 209.338,224.400 208.748 C 224.400 208.431,223.594 208.375,221.700 208.559 C 213.830 209.325,197.833 205.055,194.778 201.374 C 194.516 201.058,194.088 200.800,193.826 200.800 C 193.564 200.800,192.832 200.260,192.200 199.600 C 191.568 198.940,190.856 198.400,190.618 198.400 C 190.063 198.400,182.400 190.723,182.400 190.168 C 182.400 189.938,181.860 189.232,181.200 188.600 C 180.540 187.968,180.000 187.242,180.000 186.987 C 180.000 186.732,179.640 186.198,179.200 185.800 C 178.760 185.402,178.400 184.856,178.400 184.587 C 178.400 184.318,178.140 183.882,177.823 183.619 C 177.077 183.000,173.600 176.002,173.600 175.121 C 173.600 174.750,173.420 174.336,173.200 174.200 C 172.980 174.064,172.800 173.524,172.800 173.000 C 172.800 172.476,172.620 171.936,172.400 171.800 C 172.180 171.664,172.000 171.149,172.000 170.656 C 172.000 170.163,171.849 169.589,171.664 169.380 C 171.480 169.171,171.105 167.920,170.832 166.600 C 170.559 165.280,170.170 163.480,169.968 162.600 C 168.707 157.096,168.749 144.562,170.050 138.600 C 171.436 132.245,172.137 129.635,172.827 128.262 C 173.252 127.416,173.600 126.518,173.600 126.265 C 173.600 125.540,177.182 118.513,177.823 117.981 C 178.140 117.718,178.400 117.282,178.400 117.013 C 178.400 116.744,178.760 116.198,179.200 115.800 C 179.640 115.402,180.000 114.862,180.000 114.600 C 180.000 114.338,180.360 113.798,180.800 113.400 C 181.240 113.002,181.600 112.476,181.600 112.232 C 181.600 111.660,190.872 102.400,191.444 102.400 C 191.682 102.400,192.202 102.040,192.600 101.600 C 192.998 101.160,193.544 100.800,193.813 100.800 C 194.082 100.800,194.534 100.521,194.816 100.180 C 195.099 99.839,196.082 99.218,197.000 98.800 C 197.918 98.382,198.901 97.761,199.184 97.420 C 199.466 97.079,200.030 96.800,200.437 96.800 C 200.843 96.800,201.817 96.440,202.600 96.000 C 203.383 95.560,204.343 95.200,204.732 95.200 C 205.121 95.200,205.611 95.049,205.820 94.864 C 206.778 94.018,214.658 92.806,219.200 92.806 C 223.742 92.806,231.622 94.018,232.580 94.864 C 232.789 95.049,233.249 95.200,233.601 95.200 C 234.454 95.200,238.207 97.085,238.816 97.819 C 239.081 98.139,239.506 98.400,239.760 98.400 C 240.014 98.400,241.399 99.615,242.839 101.100 C 246.481 104.856,247.864 107.828,248.378 113.000 C 249.116 120.423,252.831 122.451,257.190 117.810 C 257.712 117.255,258.342 116.800,258.589 116.800 C 258.836 116.800,259.741 116.080,260.600 115.200 C 261.459 114.320,262.356 113.600,262.594 113.600 C 262.831 113.600,264.094 112.520,265.400 111.200 C 266.706 109.880,267.968 108.800,268.204 108.800 C 269.312 108.800,272.800 104.246,272.800 102.800 C 272.800 101.364,270.037 97.600,268.984 97.600 C 268.731 97.600,268.198 97.240,267.800 96.800 C 267.402 96.360,266.868 96.000,266.613 96.000 C 266.358 96.000,265.632 95.460,265.000 94.800 C 264.368 94.140,263.642 93.600,263.387 93.600 C 263.132 93.600,262.598 93.240,262.200 92.800 C 261.802 92.360,261.256 92.000,260.987 92.000 C 260.718 92.000,260.277 91.734,260.008 91.409 C 259.738 91.084,258.501 90.333,257.259 89.741 C 256.016 89.148,254.694 88.404,254.319 88.087 C 253.392 87.303,249.986 85.600,249.344 85.600 C 249.058 85.600,248.183 85.240,247.400 84.800 C 246.617 84.360,245.632 84.000,245.211 84.000 C 244.791 84.000,244.336 83.820,244.200 83.600 C 244.064 83.380,243.524 83.200,243.000 83.200 C 242.476 83.200,241.936 83.020,241.800 82.800 C 241.664 82.580,241.149 82.400,240.656 82.400 C 240.163 82.400,239.589 82.249,239.380 82.064 C 239.171 81.880,237.920 81.505,236.600 81.232 C 235.280 80.959,233.480 80.574,232.600 80.376 C 227.670 79.272,219.783 79.026,212.800 79.759 M205.600 80.800 L 203.800 81.080 205.476 81.140 C 206.398 81.173,207.264 81.020,207.400 80.800 C 207.536 80.580,207.592 80.427,207.524 80.460 C 207.456 80.493,206.590 80.646,205.600 80.800 M223.400 127.200 C 223.400 128.630,223.536 130.010,223.703 130.266 C 225.980 133.773,223.534 139.939,219.465 140.951 L 218.331 141.233 218.617 144.716 C 218.944 148.692,219.051 148.832,221.328 148.269 C 223.372 147.764,272.400 147.422,272.400 147.913 C 272.400 148.402,270.840 150.000,270.362 150.000 C 269.752 150.000,267.630 152.432,267.045 153.800 C 265.499 157.416,265.490 157.531,265.312 176.000 L 265.136 194.200 264.137 195.667 C 259.614 202.304,246.337 210.558,235.200 213.656 C 231.656 214.641,230.788 214.849,227.600 215.473 C 222.550 216.462,208.570 216.441,204.200 215.438 C 202.440 215.034,200.370 214.568,199.600 214.403 C 197.826 214.023,194.414 212.894,193.505 212.387 C 193.123 212.174,192.632 212.000,192.413 212.000 C 191.750 212.000,185.115 208.734,183.328 207.528 C 182.408 206.908,181.524 206.400,181.363 206.400 C 180.583 206.400,173.357 200.480,169.844 196.962 C 163.976 191.086,160.151 185.733,156.579 178.400 C 155.562 176.310,154.565 174.287,154.364 173.905 C 154.164 173.523,154.000 172.936,154.000 172.600 C 154.000 172.264,153.820 171.632,153.600 171.195 C 153.380 170.758,153.020 170.042,152.800 169.605 C 152.580 169.168,152.400 168.268,152.400 167.605 C 152.400 166.942,152.220 166.400,152.000 166.400 C 151.780 166.400,151.600 165.680,151.600 164.800 C 151.600 163.920,151.420 163.200,151.200 163.200 C 150.980 163.200,150.800 162.221,150.800 161.024 C 150.800 159.827,150.620 158.736,150.400 158.600 C 150.177 158.462,150.000 156.594,150.000 154.371 C 150.000 151.978,149.809 150.084,149.522 149.624 C 149.152 149.031,149.152 148.623,149.522 147.811 C 149.803 147.195,149.977 145.161,149.944 142.881 C 149.893 139.355,149.860 139.201,149.590 141.200 C 148.905 146.276,148.722 153.121,149.169 157.000 C 149.872 163.106,150.504 166.960,150.869 167.380 C 151.051 167.589,151.200 168.343,151.200 169.056 C 151.200 169.769,151.380 170.464,151.600 170.600 C 151.820 170.736,152.000 171.276,152.000 171.800 C 152.000 172.324,152.180 172.864,152.400 173.000 C 152.620 173.136,152.800 173.676,152.800 174.200 C 152.800 174.724,152.980 175.264,153.200 175.400 C 153.420 175.536,153.600 175.991,153.600 176.411 C 153.600 176.832,153.960 177.817,154.400 178.600 C 154.840 179.383,155.200 180.254,155.200 180.535 C 155.200 181.174,157.715 186.207,158.491 187.122 C 158.807 187.495,159.363 188.450,159.726 189.245 C 160.088 190.040,160.659 190.917,160.993 191.194 C 161.327 191.471,161.600 191.912,161.600 192.174 C 161.600 192.436,162.140 193.168,162.800 193.800 C 163.460 194.432,164.000 195.148,164.000 195.390 C 164.000 195.632,164.900 196.717,166.000 197.800 C 167.100 198.883,168.000 199.964,168.000 200.202 C 168.000 200.740,171.286 204.000,171.828 204.000 C 172.046 204.000,173.294 205.080,174.600 206.400 C 175.906 207.720,177.178 208.800,177.425 208.800 C 177.673 208.800,178.202 209.160,178.600 209.600 C 178.998 210.040,179.538 210.400,179.800 210.400 C 180.062 210.400,180.602 210.760,181.000 211.200 C 181.398 211.640,181.944 212.000,182.213 212.000 C 182.482 212.000,182.916 212.258,183.178 212.574 C 183.718 213.224,192.347 217.600,193.091 217.600 C 193.357 217.600,194.217 217.960,195.000 218.400 C 195.783 218.840,196.768 219.200,197.189 219.200 C 197.609 219.200,198.064 219.380,198.200 219.600 C 198.336 219.820,199.056 220.000,199.800 220.000 C 200.544 220.000,201.264 220.180,201.400 220.400 C 201.536 220.620,202.256 220.800,203.000 220.800 C 203.744 220.800,204.450 220.957,204.569 221.150 C 204.971 221.800,217.185 222.854,221.200 222.585 C 227.800 222.142,236.580 220.615,238.495 219.577 C 238.877 219.370,239.541 219.200,239.971 219.200 C 240.401 219.200,240.864 219.020,241.000 218.800 C 241.136 218.580,241.676 218.400,242.200 218.400 C 242.724 218.400,243.264 218.220,243.400 218.000 C 243.536 217.780,243.956 217.600,244.334 217.600 C 245.076 217.600,256.363 212.061,257.435 211.171 C 257.793 210.874,258.400 210.444,258.785 210.216 C 262.594 207.955,268.652 202.035,270.289 198.975 L 271.346 197.000 271.603 178.200 C 271.886 157.573,271.796 158.295,274.400 155.800 C 276.886 153.418,277.553 150.383,275.900 148.970 C 273.784 147.160,274.383 147.200,249.205 147.200 C 236.002 147.200,225.200 147.057,225.200 146.881 C 225.200 146.706,225.929 145.851,226.819 144.981 C 232.178 139.749,231.167 125.377,225.400 124.800 L 223.400 124.600 223.400 127.200 M210.000 125.095 C 210.330 125.222,210.835 125.658,211.123 126.063 C 211.686 126.857,212.998 127.051,213.400 126.400 C 213.536 126.180,214.526 126.000,215.600 126.000 C 216.674 126.000,217.664 126.180,217.800 126.400 C 218.162 126.986,219.169 126.888,219.857 126.200 C 220.390 125.667,220.101 125.600,217.252 125.600 C 215.489 125.600,213.936 125.420,213.800 125.200 C 213.664 124.980,212.618 124.814,211.476 124.832 C 210.334 124.849,209.670 124.967,210.000 125.095 M206.945 127.911 C 207.092 128.149,207.030 128.458,206.807 128.596 C 206.583 128.734,206.400 129.119,206.400 129.452 C 206.400 129.990,206.467 129.990,207.000 129.457 C 207.718 128.739,207.766 128.150,207.138 127.762 C 206.863 127.591,206.785 127.651,206.945 127.911 M205.493 134.931 C 205.140 137.609,205.713 140.400,206.615 140.400 C 206.937 140.400,207.200 140.566,207.200 140.769 C 207.200 142.886,211.634 144.617,212.148 142.700 C 212.516 141.325,212.491 141.283,211.100 140.981 C 209.556 140.646,206.821 138.809,206.809 138.100 C 206.804 137.825,206.629 137.600,206.419 137.600 C 206.210 137.600,205.985 136.475,205.919 135.100 L 205.800 132.600 205.493 134.931 M150.380 136.690 C 150.271 137.619,150.333 138.227,150.520 138.040 C 150.706 137.854,150.796 137.094,150.719 136.351 C 150.583 135.033,150.575 135.042,150.380 136.690 M203.913 143.312 C 203.986 144.240,204.252 145.417,204.504 145.926 C 204.854 146.632,204.849 146.923,204.483 147.149 C 204.219 147.312,205.632 147.687,207.623 147.981 C 211.400 148.541,212.364 148.324,211.866 147.027 C 211.700 146.594,211.100 146.400,209.933 146.400 C 208.382 146.400,208.056 146.201,206.011 144.012 L 203.781 141.624 203.913 143.312 M200.659 151.660 C 199.908 156.639,200.488 167.417,201.570 168.568 C 203.334 170.446,207.461 169.733,208.831 167.314 C 209.178 166.701,209.851 166.004,210.328 165.764 C 210.805 165.525,211.525 165.030,211.929 164.664 C 212.333 164.299,212.846 164.000,213.070 164.000 C 213.293 164.000,213.802 163.640,214.200 163.200 C 214.598 162.760,215.310 162.400,215.782 162.400 C 216.254 162.400,216.811 162.229,217.020 162.021 C 217.511 161.531,221.290 160.533,225.600 159.755 C 231.021 158.777,250.108 158.746,251.082 159.714 C 251.748 160.376,251.808 161.728,251.912 178.431 C 252.003 193.047,252.120 196.336,252.535 195.917 C 253.142 195.303,253.355 162.943,252.754 162.571 C 252.559 162.451,252.400 160.757,252.400 158.807 C 252.400 155.576,252.308 155.152,251.364 154.031 L 250.329 152.800 239.664 152.799 C 217.926 152.798,206.908 156.169,202.850 164.062 C 201.615 166.464,201.405 165.618,201.200 157.400 C 201.039 150.946,200.934 149.837,200.659 151.660 M160.224 207.013 C 159.796 207.336,159.661 207.600,159.924 207.600 C 160.941 207.600,160.301 208.984,157.956 211.854 C 156.612 213.499,155.577 214.909,155.656 214.986 C 156.495 215.806,160.979 219.200,161.224 219.200 C 161.401 219.200,161.654 218.861,161.785 218.447 C 161.917 218.032,162.554 217.139,163.201 216.462 C 163.848 215.785,164.492 214.773,164.633 214.212 C 164.773 213.651,165.049 213.094,165.244 212.973 C 166.542 212.170,164.843 207.497,163.170 207.266 C 162.636 207.193,162.029 206.968,161.820 206.766 C 161.322 206.286,161.148 206.313,160.224 207.013 M231.200 207.200 L 230.200 207.520 231.300 207.560 C 231.905 207.582,232.400 207.420,232.400 207.200 C 232.400 206.980,232.355 206.818,232.300 206.840 C 232.245 206.862,231.750 207.024,231.200 207.200 M226.505 208.287 C 227.114 208.379,228.014 208.377,228.505 208.282 C 228.997 208.187,228.500 208.111,227.400 208.114 C 226.300 208.117,225.897 208.195,226.505 208.287 M263.455 208.600 C 263.582 208.930,263.801 209.200,263.943 209.201 C 264.084 209.201,264.733 210.056,265.384 211.101 C 266.035 212.145,268.029 214.710,269.814 216.800 C 274.186 221.918,274.584 222.549,273.831 223.174 C 273.369 223.558,273.338 223.866,273.686 224.629 C 274.476 226.363,270.360 229.742,268.603 228.802 C 267.856 228.402,267.496 228.389,267.065 228.746 C 266.400 229.298,265.710 228.765,263.505 226.000 C 259.667 221.186,258.179 220.000,255.980 220.000 C 254.113 220.000,253.996 220.053,254.583 220.640 C 255.099 221.156,255.337 221.184,255.821 220.783 C 256.570 220.161,256.370 219.909,258.688 224.400 C 259.766 226.490,261.333 229.345,262.169 230.744 L 263.690 233.288 262.867 234.111 C 261.656 235.322,260.603 233.994,256.164 225.653 C 254.744 222.983,254.437 222.868,252.226 224.164 C 249.802 225.584,249.812 225.449,251.869 229.026 C 252.873 230.772,254.055 232.830,254.495 233.600 C 254.936 234.370,255.545 235.355,255.848 235.789 C 256.797 237.145,256.141 238.800,254.656 238.800 C 254.444 238.800,250.800 232.907,250.800 232.564 C 250.800 232.139,247.661 227.761,246.595 226.700 C 245.661 225.769,245.176 225.607,243.445 225.646 C 242.320 225.672,241.697 225.772,242.059 225.868 C 242.421 225.964,242.817 226.423,242.939 226.887 C 243.131 227.624,243.244 227.661,243.823 227.181 C 244.659 226.487,245.412 227.376,246.029 229.788 C 246.256 230.674,246.904 232.570,247.469 234.000 C 249.075 238.068,249.207 238.696,248.566 239.228 C 248.255 239.487,248.000 240.104,248.000 240.600 C 248.000 242.334,242.782 244.411,241.800 243.068 C 241.439 242.575,240.988 242.438,240.294 242.612 C 238.398 243.088,236.118 236.797,237.973 236.209 C 238.499 236.042,238.722 235.640,238.673 234.950 C 238.609 234.060,238.905 233.813,241.100 232.926 C 243.692 231.878,243.917 231.534,243.133 229.813 C 242.617 228.681,242.173 228.711,239.500 230.059 C 238.382 230.623,238.000 231.065,238.000 231.794 C 238.000 233.203,236.582 233.888,235.567 232.970 C 234.636 232.128,234.583 231.074,235.429 230.229 C 235.954 229.703,235.962 229.600,235.479 229.600 C 235.160 229.600,234.338 229.488,233.650 229.350 C 232.440 229.108,232.400 229.145,232.400 230.501 C 232.400 232.098,231.943 232.592,230.100 232.986 C 229.068 233.206,228.800 233.463,228.800 234.232 C 228.800 234.835,228.569 235.200,228.187 235.200 C 227.278 235.200,227.050 236.219,227.536 238.114 C 229.533 245.898,229.689 246.945,228.936 247.496 C 227.429 248.598,226.796 247.797,226.014 243.800 C 225.842 242.920,225.228 239.922,224.649 237.139 C 224.069 234.355,223.706 231.790,223.841 231.439 C 224.213 230.468,226.421 230.593,226.684 231.600 C 226.956 232.641,227.600 232.634,227.600 231.590 C 227.600 231.114,227.222 230.637,226.684 230.432 C 226.180 230.240,225.527 229.795,225.235 229.442 C 224.942 229.089,224.482 228.800,224.213 228.800 C 223.944 228.800,223.420 228.464,223.049 228.054 C 222.225 227.144,219.566 226.822,216.000 227.201 L 213.400 227.478 216.500 227.539 C 219.435 227.597,219.600 227.648,219.600 228.505 C 219.600 229.060,219.948 229.563,220.500 229.805 C 221.976 230.453,222.047 234.201,220.591 234.567 C 219.390 234.868,219.457 235.740,220.696 235.923 C 221.450 236.035,221.556 236.412,221.818 239.923 C 222.288 246.229,222.294 246.152,221.322 246.582 C 220.839 246.796,220.346 247.362,220.225 247.841 C 220.022 248.650,219.702 248.726,215.704 248.924 C 213.337 249.041,210.905 249.262,210.300 249.415 L 209.200 249.693 209.200 245.270 C 209.200 242.753,209.028 240.741,208.800 240.600 C 208.579 240.463,208.378 238.438,208.350 236.076 C 208.309 232.621,208.239 232.145,207.983 233.600 C 207.412 236.849,208.344 250.156,209.303 252.436 C 210.602 255.526,221.147 256.094,224.200 253.238 C 225.770 251.769,226.760 251.445,227.558 252.140 C 231.463 255.539,236.254 251.264,234.835 245.646 C 233.441 240.127,233.433 239.985,234.477 238.941 C 235.944 237.475,236.800 238.020,236.800 240.419 C 236.800 241.483,236.980 242.464,237.200 242.600 C 237.420 242.736,237.600 243.169,237.600 243.562 C 237.600 249.717,250.521 250.881,253.214 244.968 C 253.999 243.246,255.191 242.615,255.800 243.600 C 256.686 245.033,261.273 243.268,261.602 241.368 C 261.794 240.263,261.923 240.193,264.002 240.078 C 266.469 239.940,268.800 238.237,268.800 236.571 C 268.800 235.359,269.463 234.949,271.935 234.635 C 275.292 234.208,277.509 232.604,278.895 229.600 C 279.874 227.478,280.296 224.230,279.646 223.828 C 279.401 223.677,279.200 223.150,279.200 222.658 C 279.200 222.140,278.525 221.103,277.600 220.200 C 276.720 219.341,276.000 218.442,276.000 218.204 C 276.000 217.965,275.100 216.883,274.000 215.800 C 272.900 214.717,272.000 213.637,272.000 213.401 C 272.000 212.888,268.172 209.204,266.905 208.498 C 265.583 207.762,263.161 207.833,263.455 208.600 M260.748 211.482 C 260.546 214.306,260.553 214.347,261.182 213.984 C 262.948 212.964,262.960 212.924,261.858 211.822 C 260.950 210.913,260.793 210.865,260.748 211.482 M167.753 213.276 C 167.591 213.538,167.670 213.823,167.929 213.910 C 168.891 214.230,168.314 215.249,164.891 219.274 C 162.961 221.543,160.619 224.408,159.688 225.640 C 157.163 228.981,156.656 229.365,155.552 228.775 C 154.877 228.413,154.598 228.405,154.486 228.743 C 154.204 229.588,152.888 229.211,151.202 227.802 C 150.282 227.033,148.899 226.105,148.128 225.739 C 146.919 225.165,146.751 224.916,146.897 223.920 C 146.990 223.284,146.917 222.672,146.733 222.559 C 146.550 222.445,146.400 223.433,146.400 224.753 C 146.400 226.073,146.580 227.264,146.800 227.400 C 147.020 227.536,147.200 228.051,147.200 228.545 C 147.200 229.407,149.451 232.000,150.200 232.000 C 150.399 232.000,151.155 232.575,151.879 233.277 C 153.120 234.480,153.386 234.559,156.435 234.636 C 159.762 234.720,160.800 235.373,160.800 237.384 C 160.800 239.395,163.898 242.400,165.971 242.400 C 166.401 242.400,166.864 242.580,167.000 242.800 C 167.136 243.020,168.126 243.200,169.200 243.200 C 170.274 243.200,171.264 243.020,171.400 242.800 C 172.106 241.657,174.400 243.074,174.400 244.653 C 174.400 247.995,182.875 250.697,185.882 248.313 C 186.446 247.867,187.200 248.228,187.200 248.945 C 187.200 250.210,189.802 252.000,191.641 252.000 C 194.687 252.000,197.600 247.247,197.600 242.277 C 197.600 241.039,199.102 239.675,200.819 239.354 C 204.008 238.758,205.602 235.730,204.203 232.926 C 203.168 230.852,202.406 230.466,198.390 229.981 C 196.305 229.729,193.908 229.180,193.062 228.762 C 192.117 228.293,190.730 228.010,189.462 228.025 C 187.821 228.046,187.584 228.125,188.300 228.412 C 189.365 228.840,189.352 228.769,188.626 230.239 C 188.311 230.877,187.145 233.817,186.036 236.771 C 184.108 241.904,183.465 243.011,182.688 242.531 C 182.496 242.412,182.002 242.676,181.591 243.118 C 180.904 243.855,180.719 243.876,179.321 243.378 C 178.485 243.079,177.341 242.827,176.780 242.818 C 175.554 242.796,174.800 242.124,174.800 241.051 C 174.800 240.618,174.531 239.966,174.202 239.602 C 173.666 239.010,173.769 238.526,175.183 234.971 C 176.052 232.787,177.149 229.695,177.621 228.100 C 178.310 225.769,178.633 225.200,179.268 225.200 C 180.709 225.200,181.719 226.869,180.855 227.820 C 180.665 228.029,180.318 228.740,180.085 229.400 C 179.851 230.060,178.940 232.604,178.060 235.053 L 176.460 239.505 177.930 240.153 C 180.851 241.439,181.284 241.281,182.191 238.600 C 182.638 237.280,183.106 236.020,183.231 235.800 C 183.356 235.580,183.702 234.590,183.999 233.600 C 184.296 232.610,184.688 231.629,184.870 231.420 C 185.051 231.211,185.200 230.572,185.200 230.000 C 185.200 229.428,185.398 228.762,185.641 228.519 C 186.344 227.816,185.197 225.828,183.996 225.666 C 183.448 225.593,182.829 225.368,182.620 225.166 C 182.411 224.965,181.821 224.800,181.308 224.800 C 180.743 224.800,179.891 224.248,179.147 223.401 C 178.472 222.632,176.767 221.453,175.360 220.781 C 172.532 219.431,172.600 219.510,173.296 218.395 C 173.691 217.762,173.691 217.438,173.296 216.805 C 173.023 216.368,172.800 215.684,172.800 215.285 C 172.800 214.302,172.027 213.600,170.944 213.600 C 170.451 213.600,169.936 213.420,169.800 213.200 C 169.458 212.647,168.111 212.697,167.753 213.276 M152.723 215.920 C 152.616 217.199,152.444 217.423,151.437 217.598 C 150.390 217.780,150.340 217.854,150.937 218.349 C 151.831 219.090,151.777 219.493,150.571 221.074 C 149.294 222.748,149.311 222.795,151.997 224.998 C 154.438 227.000,154.981 227.156,155.583 226.031 C 155.810 225.608,156.221 225.014,156.497 224.710 C 156.774 224.406,157.526 223.585,158.168 222.885 C 159.579 221.350,159.338 220.949,155.556 218.539 C 153.269 217.082,152.746 216.214,153.627 215.333 C 153.929 215.031,153.878 214.839,153.450 214.674 C 152.989 214.498,152.817 214.794,152.723 215.920 M262.900 216.772 C 260.678 218.780,260.587 218.545,265.964 224.705 L 268.150 227.209 269.375 225.999 C 270.049 225.333,270.945 224.546,271.366 224.251 C 272.089 223.744,271.942 223.481,268.763 219.589 C 264.775 214.706,265.043 214.835,262.900 216.772 M171.317 220.900 C 171.909 221.175,172.395 221.535,172.397 221.700 C 172.399 221.865,172.588 222.000,172.817 222.000 C 173.809 222.000,174.842 223.495,174.577 224.549 C 174.424 225.160,174.481 225.600,174.714 225.600 C 175.746 225.600,175.436 227.088,173.774 230.110 C 172.779 231.920,171.577 234.165,171.103 235.100 C 170.396 236.493,170.037 236.800,169.115 236.800 C 168.496 236.800,167.652 237.011,167.240 237.268 C 166.628 237.650,166.074 237.539,164.234 236.668 C 162.993 236.081,161.783 235.600,161.544 235.600 C 161.290 235.600,161.181 235.108,161.283 234.415 C 161.393 233.668,161.262 233.156,160.928 233.028 C 159.916 232.639,160.732 230.900,165.868 222.500 C 166.188 221.977,166.813 221.600,167.360 221.600 C 167.878 221.600,168.526 221.330,168.800 221.000 C 169.406 220.269,169.916 220.249,171.317 220.900 M166.483 226.700 C 162.590 233.623,162.669 232.822,165.714 234.431 C 167.411 235.327,167.707 235.249,168.519 233.692 C 170.493 229.903,171.688 227.814,172.394 226.917 C 172.837 226.353,173.200 225.774,173.200 225.630 C 173.200 225.375,169.158 223.200,168.686 223.200 C 168.557 223.200,167.565 224.775,166.483 226.700 M192.739 229.829 C 194.038 230.477,194.303 230.966,193.593 231.404 C 193.370 231.542,193.291 231.823,193.417 232.028 C 193.854 232.734,194.337 232.396,194.600 231.200 C 194.846 230.079,196.400 229.367,196.400 230.376 C 196.400 230.583,197.075 230.808,197.900 230.876 C 200.873 231.122,199.993 233.775,196.977 233.661 C 195.481 233.604,194.964 233.758,194.519 234.395 C 194.209 234.838,193.613 235.200,193.195 235.200 C 192.629 235.200,192.373 235.581,192.186 236.700 C 190.762 245.252,190.203 246.782,188.500 246.794 C 187.360 246.802,187.338 245.982,188.370 241.755 C 188.793 240.020,189.446 236.980,189.821 235.000 C 190.425 231.806,191.129 229.200,191.387 229.200 C 191.437 229.200,192.045 229.483,192.739 229.829 M216.600 230.694 C 211.776 231.014,211.600 231.091,211.600 232.882 L 211.600 234.516 214.300 234.261 C 215.785 234.120,217.405 234.004,217.900 234.003 C 218.681 234.000,218.800 233.791,218.800 232.424 C 218.800 230.603,218.736 230.553,216.600 230.694 M242.123 235.437 C 240.062 236.357,240.049 236.375,240.420 237.682 C 241.483 241.425,241.809 241.679,243.910 240.399 C 244.630 239.959,245.485 239.600,245.810 239.600 C 246.530 239.600,246.540 239.110,245.866 236.856 C 245.173 234.539,244.612 234.326,242.123 235.437 M211.852 237.115 C 211.745 237.289,211.779 239.404,211.929 241.815 L 212.200 246.200 215.800 246.060 C 219.561 245.913,220.130 245.775,219.242 245.226 C 218.820 244.965,218.768 244.037,218.997 240.848 L 219.286 236.800 215.667 236.800 C 213.676 236.800,211.960 236.942,211.852 237.115 " stroke="none" fill="#a0a0a0" fill-rule="evenodd"></path><path id="path1" d="M210.800 47.953 C 210.800 49.074,210.678 49.200,209.592 49.200 L 208.384 49.200 208.492 57.495 C 208.583 64.497,208.693 65.806,209.200 65.894 C 210.566 66.133,210.727 65.431,211.005 57.999 C 211.334 49.241,211.127 49.600,215.849 49.600 C 218.790 49.600,219.173 49.514,219.399 48.804 C 219.716 47.806,219.388 47.248,218.492 47.262 C 218.111 47.268,216.225 47.145,214.300 46.990 L 210.800 46.707 210.800 47.953 M226.480 48.080 C 225.928 48.632,225.860 49.959,226.344 50.723 C 226.870 51.552,228.764 50.881,229.044 49.768 C 229.446 48.166,227.606 46.954,226.480 48.080 M235.600 50.000 C 235.600 50.440,235.409 50.800,235.175 50.800 C 234.941 50.800,234.782 51.115,234.821 51.500 C 234.957 52.835,234.796 53.145,233.900 53.272 C 232.806 53.428,232.288 56.000,233.351 56.000 C 234.394 56.000,234.446 56.688,233.595 59.215 C 231.580 65.197,231.335 68.361,232.886 68.394 C 233.486 68.407,234.925 63.897,235.995 58.651 C 236.387 56.729,236.835 56.441,238.859 56.811 C 240.088 57.035,240.514 56.969,240.684 56.525 C 240.985 55.741,240.437 55.287,239.000 55.131 C 237.708 54.990,237.056 53.184,237.969 52.271 C 238.620 51.620,238.500 50.000,237.800 50.000 C 237.470 50.000,237.200 49.820,237.200 49.600 C 237.200 49.380,236.840 49.200,236.400 49.200 C 235.867 49.200,235.600 49.467,235.600 50.000 M219.600 50.800 C 219.600 51.402,219.809 51.618,220.300 51.524 C 220.685 51.450,221.000 51.124,221.000 50.800 C 221.000 50.476,220.685 50.150,220.300 50.076 C 219.809 49.982,219.600 50.198,219.600 50.800 M225.948 53.500 C 225.710 54.105,225.281 57.210,224.995 60.400 C 224.709 63.590,224.349 66.693,224.195 67.296 C 223.983 68.126,224.078 68.455,224.584 68.649 C 225.605 69.041,226.114 68.241,226.458 65.707 C 226.912 62.362,227.491 58.570,227.996 55.635 C 228.349 53.592,228.333 53.004,227.919 52.742 C 226.987 52.150,226.388 52.381,225.948 53.500 M246.595 54.273 C 246.257 55.083,245.689 56.747,245.333 57.971 C 244.977 59.195,244.262 60.868,243.743 61.690 C 243.224 62.512,242.800 63.378,242.800 63.616 C 242.800 63.853,242.657 63.959,242.483 63.851 C 242.309 63.744,242.142 63.977,242.112 64.370 C 242.083 64.763,241.699 65.875,241.259 66.842 C 240.134 69.316,239.805 71.740,240.516 72.330 C 241.216 72.911,241.983 72.120,242.969 69.800 C 247.612 58.868,247.169 59.417,250.208 60.846 C 251.605 61.502,252.268 61.627,252.749 61.323 C 253.767 60.681,253.436 60.330,250.828 59.287 C 248.212 58.240,247.983 57.809,249.002 55.854 C 249.846 54.236,249.750 53.637,248.574 53.190 C 247.193 52.665,247.289 52.612,246.595 54.273 M191.844 53.671 C 191.956 53.852,191.227 54.000,190.224 54.000 C 189.221 54.000,188.400 54.180,188.400 54.400 C 188.400 54.620,188.040 54.800,187.600 54.800 C 186.730 54.800,186.401 57.433,187.172 58.220 C 187.623 58.680,189.557 65.637,190.280 69.400 C 190.538 70.745,191.055 71.230,191.890 70.910 C 192.534 70.663,192.372 69.165,191.209 64.600 C 189.984 59.791,189.956 59.364,190.819 58.583 C 191.249 58.194,191.600 57.640,191.600 57.352 C 191.600 56.710,192.852 56.000,193.984 56.000 C 194.513 56.000,194.963 55.624,195.210 54.974 C 195.843 53.310,195.700 53.156,193.620 53.251 C 192.531 53.300,191.732 53.489,191.844 53.671 M190.571 55.029 C 191.356 55.813,191.368 56.250,190.613 56.540 C 189.916 56.807,189.442 56.189,189.742 55.406 C 189.862 55.093,189.659 54.772,189.278 54.671 C 188.650 54.506,188.650 54.489,189.271 54.446 C 189.641 54.421,190.226 54.683,190.571 55.029 M215.345 56.200 C 214.872 57.432,215.516 58.000,217.387 58.000 L 219.200 58.000 219.183 59.500 C 219.144 62.794,218.284 65.393,217.200 65.487 C 211.059 66.023,210.756 66.093,210.880 66.960 C 210.990 67.730,211.292 67.810,214.498 67.916 L 217.996 68.031 219.371 66.655 C 220.692 65.335,220.749 65.153,220.802 62.140 C 220.876 57.873,220.901 58.000,220.000 58.000 C 219.378 58.000,219.200 57.733,219.200 56.800 C 219.200 55.417,215.845 54.895,215.345 56.200 M180.096 57.195 C 179.500 58.149,179.442 59.600,180.000 59.600 C 180.220 59.600,180.400 59.811,180.400 60.069 C 180.400 60.326,180.641 60.821,180.936 61.169 C 181.231 61.516,181.890 62.880,182.401 64.200 C 182.912 65.520,183.449 66.780,183.593 67.000 C 184.222 67.958,184.951 70.951,184.587 71.085 C 183.046 71.654,180.200 73.565,180.200 74.031 C 180.200 75.635,185.294 73.693,185.539 71.995 C 185.615 71.465,185.969 70.818,186.326 70.558 C 186.908 70.131,186.785 69.607,185.099 65.342 C 183.445 61.159,182.466 57.607,182.717 56.700 C 182.909 56.004,180.563 56.447,180.096 57.195 M172.300 60.147 C 171.538 60.736,171.360 61.600,172.000 61.600 C 172.220 61.600,172.400 61.960,172.400 62.400 C 172.400 62.840,172.555 63.200,172.744 63.200 C 173.042 63.200,176.000 69.187,176.000 69.789 C 176.000 70.781,177.808 73.600,178.444 73.600 C 179.605 73.600,179.493 72.957,177.565 68.550 C 176.650 66.458,175.277 62.108,175.120 60.800 C 174.979 59.627,173.434 59.269,172.300 60.147 M252.711 63.088 C 251.166 64.821,246.986 74.465,247.359 75.436 C 248.001 77.110,249.353 75.524,251.338 70.769 C 251.745 69.796,252.420 68.237,252.838 67.304 C 253.257 66.372,253.600 65.373,253.600 65.084 C 253.600 64.796,253.817 64.343,254.083 64.077 C 254.460 63.700,254.432 63.461,253.956 62.985 C 253.410 62.439,253.280 62.449,252.711 63.088 M259.339 63.900 C 259.051 65.048,257.178 68.679,255.985 70.400 C 253.595 73.850,252.860 75.784,253.801 76.145 C 254.234 76.311,255.425 74.847,258.058 70.913 C 262.103 64.870,262.361 64.303,261.471 63.414 C 260.533 62.476,259.646 62.678,259.339 63.900 M164.800 64.400 C 164.483 64.840,163.903 65.200,163.512 65.200 C 163.120 65.200,162.800 65.380,162.800 65.600 C 162.800 65.820,162.517 66.000,162.171 66.000 C 161.069 66.000,160.288 67.138,160.536 68.382 C 160.695 69.177,160.587 69.596,160.183 69.751 C 159.260 70.105,159.498 71.137,160.822 72.522 C 161.494 73.225,162.521 74.610,163.103 75.600 C 163.685 76.590,164.260 77.490,164.381 77.600 C 164.501 77.710,164.903 78.340,165.273 79.000 C 166.012 80.320,166.685 80.609,167.600 79.999 C 168.009 79.727,168.062 79.505,167.765 79.300 C 167.362 79.023,164.143 73.675,162.813 71.074 C 162.076 69.633,162.482 68.961,164.967 67.501 C 167.166 66.209,167.213 66.234,169.135 69.741 C 169.841 71.028,170.954 72.861,171.609 73.813 C 173.084 75.957,173.101 76.615,171.700 77.382 C 169.840 78.400,168.730 79.545,168.883 80.290 C 169.263 82.140,173.869 79.248,173.670 77.284 C 173.596 76.554,173.725 76.000,173.970 76.000 C 174.648 76.000,174.473 74.826,173.616 73.622 C 173.184 73.016,171.938 70.828,170.846 68.760 C 169.755 66.692,168.713 65.032,168.531 65.070 C 168.349 65.109,167.930 65.246,167.599 65.375 C 167.239 65.516,166.786 65.270,166.470 64.763 C 166.179 64.297,166.134 64.036,166.370 64.182 C 166.607 64.328,166.800 64.257,166.800 64.024 C 166.800 63.297,165.405 63.560,164.800 64.400 M266.052 68.678 C 265.810 69.295,264.860 70.970,263.943 72.400 C 259.584 79.192,259.544 79.275,260.264 80.070 C 261.086 80.979,261.629 80.588,263.101 78.032 C 263.681 77.024,265.225 74.595,266.533 72.633 C 268.361 69.891,268.819 68.919,268.515 68.433 C 267.812 67.311,266.540 67.438,266.052 68.678 M150.500 68.998 C 149.753 69.847,149.879 71.508,150.711 71.772 C 151.790 72.114,155.677 75.967,155.499 76.517 C 155.414 76.783,154.678 77.360,153.864 77.800 C 152.342 78.623,150.400 81.078,150.400 82.179 C 150.400 83.310,151.558 82.827,154.183 80.600 C 157.557 77.737,157.022 77.641,160.548 81.748 C 162.101 83.557,162.609 83.925,163.048 83.560 C 163.785 82.948,163.752 82.761,162.700 81.592 C 162.205 81.043,160.630 79.245,159.200 77.597 C 157.771 75.948,156.489 74.510,156.352 74.400 C 156.215 74.290,155.261 72.895,154.232 71.300 C 152.349 68.381,151.503 67.859,150.500 68.998 M233.471 68.662 C 232.382 69.751,235.386 71.474,236.824 70.585 C 237.579 70.118,237.171 69.209,236.100 68.970 C 235.495 68.836,234.717 68.650,234.371 68.558 C 234.025 68.466,233.620 68.513,233.471 68.662 M274.800 68.835 C 274.800 69.346,271.237 74.555,269.899 76.000 C 263.698 82.695,263.069 84.813,266.437 87.667 C 267.644 88.690,268.500 89.136,268.937 88.969 C 270.039 88.546,269.700 87.809,267.580 86.022 C 265.158 83.980,264.967 84.603,269.597 79.437 C 273.955 74.576,273.654 74.700,275.951 76.800 C 277.842 78.529,278.307 78.708,278.642 77.835 C 278.771 77.498,278.121 76.590,277.029 75.584 C 274.864 73.588,274.836 73.414,276.422 71.777 C 278.019 70.129,277.781 68.400,275.957 68.400 C 275.320 68.400,274.800 68.596,274.800 68.835 M142.500 76.198 C 141.939 76.835,141.811 78.164,142.342 77.836 C 142.530 77.720,143.919 78.789,145.428 80.212 C 148.378 82.993,148.325 82.962,149.156 82.436 C 149.594 82.159,149.307 81.586,147.811 79.750 C 146.766 78.467,145.755 77.008,145.565 76.508 C 145.165 75.455,143.319 75.268,142.500 76.198 M253.843 77.433 C 253.417 78.542,253.558 78.718,255.754 79.830 C 259.467 81.710,260.414 80.520,257.006 78.257 C 254.545 76.623,254.189 76.530,253.843 77.433 M275.762 81.316 C 271.053 86.134,269.482 88.800,271.353 88.800 C 271.671 88.800,273.315 87.284,275.006 85.432 C 279.109 80.936,279.392 80.513,278.786 79.783 C 278.103 78.960,278.029 78.997,275.762 81.316 M207.600 80.800 C 207.600 81.020,206.621 81.200,205.424 81.200 C 204.227 81.200,203.136 81.380,203.000 81.600 C 202.864 81.820,202.058 82.000,201.210 82.000 C 200.361 82.000,199.607 82.172,199.533 82.382 C 199.460 82.593,198.737 82.809,197.926 82.863 C 197.115 82.916,196.541 83.104,196.649 83.280 C 196.758 83.456,196.286 83.600,195.600 83.600 C 194.870 83.600,194.455 83.766,194.600 84.000 C 194.744 84.233,194.337 84.400,193.624 84.400 C 192.951 84.400,192.400 84.580,192.400 84.800 C 192.400 85.020,191.860 85.200,191.200 85.200 C 190.540 85.200,190.000 85.380,190.000 85.600 C 190.000 85.820,189.722 86.000,189.383 86.000 C 189.044 86.000,188.380 86.360,187.908 86.800 C 187.436 87.240,186.710 87.600,186.296 87.600 C 185.882 87.600,185.271 87.872,184.939 88.204 C 184.607 88.536,184.142 88.688,183.906 88.542 C 183.651 88.385,183.593 88.464,183.762 88.738 C 183.931 89.012,183.793 89.200,183.424 89.200 C 183.081 89.200,182.800 89.380,182.800 89.600 C 182.800 89.820,182.440 90.000,182.000 90.000 C 181.560 90.000,181.200 90.180,181.200 90.400 C 181.200 90.620,180.957 90.800,180.659 90.800 C 180.362 90.800,179.554 91.340,178.863 92.000 C 178.172 92.660,177.414 93.200,177.178 93.200 C 176.941 93.200,175.871 94.100,174.800 95.200 C 173.729 96.300,172.656 97.200,172.415 97.200 C 171.856 97.200,168.635 100.410,168.289 101.313 C 168.144 101.691,167.780 102.000,167.480 102.000 C 167.180 102.000,166.680 102.495,166.368 103.100 C 166.055 103.705,165.125 104.861,164.300 105.669 C 163.475 106.476,162.800 107.382,162.800 107.680 C 162.800 107.979,162.440 108.483,162.000 108.800 C 161.560 109.117,161.200 109.657,161.200 110.000 C 161.200 110.343,160.840 110.883,160.400 111.200 C 159.960 111.517,159.600 112.097,159.600 112.488 C 159.600 112.880,159.420 113.200,159.200 113.200 C 158.980 113.200,158.800 113.487,158.800 113.838 C 158.800 114.492,157.280 116.894,156.714 117.133 C 156.542 117.207,156.400 117.792,156.400 118.433 C 156.400 119.075,156.220 119.600,156.000 119.600 C 155.780 119.600,155.600 119.960,155.600 120.400 C 155.600 120.840,155.420 121.200,155.200 121.200 C 154.980 121.200,154.800 121.661,154.800 122.224 C 154.800 122.804,154.627 123.140,154.400 123.000 C 154.167 122.856,154.000 123.255,154.000 123.953 C 154.000 124.613,153.820 125.264,153.600 125.400 C 153.380 125.536,153.200 126.087,153.200 126.624 C 153.200 127.161,153.020 127.600,152.800 127.600 C 152.580 127.600,152.400 128.320,152.400 129.200 C 152.400 130.080,152.220 130.800,152.000 130.800 C 151.780 130.800,151.600 131.441,151.600 132.224 C 151.600 133.007,151.449 133.554,151.265 133.440 C 151.081 133.326,150.890 134.345,150.841 135.705 C 150.792 137.064,150.573 138.391,150.356 138.653 C 149.862 139.248,149.937 156.724,150.437 157.664 C 150.631 158.029,150.860 159.225,150.945 160.322 C 151.031 161.419,151.232 162.528,151.391 162.786 C 151.551 163.045,152.018 164.639,152.428 166.328 C 152.839 168.018,153.472 170.120,153.835 171.000 C 154.199 171.880,154.636 172.960,154.808 173.400 C 165.935 201.938,195.719 219.815,224.835 215.433 C 240.390 213.092,255.893 205.390,262.979 196.482 L 264.794 194.200 264.797 177.526 C 264.801 155.020,265.013 154.016,270.820 149.053 C 271.382 148.573,271.538 148.209,271.258 148.036 C 270.518 147.578,225.581 147.879,223.800 148.354 C 222.920 148.589,221.345 148.785,220.300 148.790 L 218.400 148.800 218.400 147.259 C 218.400 146.411,218.287 144.638,218.149 143.319 L 217.899 140.920 219.183 140.663 C 223.116 139.877,225.172 135.179,223.419 130.984 C 223.036 130.066,222.918 128.925,223.072 127.621 C 223.294 125.750,222.750 124.400,221.775 124.400 C 221.403 124.400,220.000 126.029,220.000 126.461 C 220.000 126.958,217.800 126.874,216.608 126.331 C 215.772 125.950,215.315 125.988,214.176 126.531 C 212.181 127.482,211.622 127.380,210.174 125.800 C 208.270 123.721,207.600 123.918,207.600 126.554 C 207.600 128.737,206.682 131.349,206.274 130.328 C 206.158 130.038,206.049 131.201,206.032 132.914 C 205.987 137.312,208.578 140.793,211.900 140.799 C 212.898 140.800,213.112 141.869,212.386 143.226 C 211.612 144.673,207.217 143.528,207.193 141.873 C 207.182 141.107,205.358 139.600,204.444 139.600 C 203.014 139.600,203.468 140.865,205.764 143.273 C 207.760 145.367,210.327 146.740,211.217 146.189 C 211.755 145.857,212.469 147.152,212.206 147.981 C 211.906 148.926,211.015 149.002,207.400 148.388 C 206.080 148.163,204.145 147.889,203.100 147.779 L 201.200 147.578 201.200 155.966 C 201.200 165.257,201.314 165.650,203.181 162.770 C 206.177 158.146,212.949 154.824,222.800 153.146 C 224.777 152.810,230.076 152.629,238.336 152.618 L 250.873 152.600 251.801 153.762 C 252.357 154.458,252.803 155.662,252.913 156.762 C 253.293 160.574,253.214 196.000,252.825 196.000 C 252.611 196.000,251.986 196.450,251.436 197.000 C 250.886 197.550,250.203 198.002,249.918 198.004 C 249.633 198.006,248.975 198.546,248.455 199.204 C 247.935 199.862,247.170 200.400,246.755 200.400 C 246.340 200.400,246.000 200.580,246.000 200.800 C 246.000 201.020,245.764 201.200,245.475 201.200 C 245.187 201.200,244.564 201.560,244.092 202.000 C 243.620 202.440,242.956 202.800,242.617 202.800 C 242.278 202.800,242.000 202.980,242.000 203.200 C 242.000 203.420,241.640 203.600,241.200 203.600 C 240.760 203.600,240.399 203.735,240.397 203.900 C 240.393 204.259,238.456 205.200,237.720 205.200 C 237.434 205.200,237.200 205.380,237.200 205.600 C 237.200 205.820,236.660 206.000,236.000 206.000 C 235.340 206.000,234.800 206.180,234.800 206.400 C 234.800 206.620,234.361 206.800,233.824 206.800 C 233.287 206.800,232.736 206.980,232.600 207.200 C 232.464 207.420,231.744 207.600,231.000 207.600 C 230.256 207.600,229.536 207.780,229.400 208.000 C 229.264 208.220,228.038 208.403,226.676 208.406 C 224.930 208.410,224.377 208.527,224.800 208.800 C 225.793 209.442,210.771 209.486,207.200 208.852 C 158.565 200.221,145.969 125.487,188.088 95.463 C 213.087 77.643,251.997 87.816,249.330 111.476 C 248.930 115.018,249.280 115.183,251.950 112.711 C 253.239 111.517,257.113 108.228,260.559 105.402 C 264.289 102.342,266.677 100.117,266.462 99.902 C 265.758 99.198,254.646 91.567,252.339 90.204 C 250.612 89.183,244.788 86.292,241.882 85.014 C 239.311 83.882,233.543 82.143,230.600 81.612 C 229.060 81.335,227.278 80.948,226.640 80.754 C 224.996 80.252,207.600 80.295,207.600 80.800 M160.498 85.528 C 158.829 86.418,156.654 89.043,156.949 89.811 C 157.349 90.854,158.400 90.447,160.827 88.311 C 164.109 85.422,163.907 83.710,160.498 85.528 M152.388 87.414 C 151.279 88.751,154.241 91.130,155.477 89.894 C 156.125 89.247,156.117 89.147,155.341 88.104 C 154.367 86.795,153.140 86.508,152.388 87.414 M157.200 207.426 C 157.200 207.770,156.323 208.906,155.251 209.950 C 152.939 212.203,152.500 213.242,153.457 214.199 C 154.025 214.768,154.056 215.018,153.642 215.681 C 153.369 216.119,153.202 216.532,153.272 216.599 C 153.343 216.666,154.795 217.651,156.500 218.789 C 159.965 221.101,160.362 222.001,158.410 223.119 C 156.575 224.169,154.904 227.476,155.772 228.339 C 156.510 229.074,157.794 227.899,160.512 224.000 C 161.202 223.010,163.161 220.618,164.865 218.684 C 167.468 215.729,167.911 215.027,167.638 214.284 C 167.151 212.960,165.849 212.958,164.992 214.280 C 164.593 214.896,163.936 215.691,163.533 216.047 C 163.130 216.403,162.799 216.853,162.799 217.047 C 162.798 217.241,162.433 217.998,161.987 218.728 L 161.178 220.056 159.289 218.490 C 158.250 217.628,156.905 216.605,156.300 216.216 C 154.819 215.263,154.848 215.168,157.612 211.785 C 159.599 209.354,159.979 208.655,159.769 207.817 C 159.469 206.623,157.200 206.277,157.200 207.426 M260.900 208.998 C 260.006 210.014,260.369 210.798,262.217 211.843 C 263.532 212.586,263.384 213.477,261.863 213.979 C 259.645 214.711,258.675 215.770,258.889 217.225 C 259.009 218.039,258.886 218.546,258.536 218.680 C 257.649 219.020,257.897 219.468,260.312 221.886 C 261.584 223.159,263.502 225.246,264.574 226.524 C 266.309 228.593,266.589 228.782,267.125 228.247 C 267.660 227.711,267.467 227.329,265.363 224.773 C 260.024 218.286,260.144 218.678,262.815 216.426 C 265.256 214.368,265.345 214.396,268.135 218.070 C 271.992 223.151,273.600 224.470,273.600 222.556 C 273.600 222.043,271.017 218.505,269.982 217.600 C 268.805 216.571,264.981 211.571,264.302 210.173 C 263.382 208.279,261.964 207.790,260.900 208.998 M147.900 218.947 C 146.628 220.041,146.369 222.149,147.454 222.566 C 148.048 222.793,148.040 222.893,147.370 223.633 C 146.664 224.413,146.996 225.169,148.056 225.194 C 148.197 225.197,149.429 226.023,150.795 227.028 C 153.152 228.763,154.400 229.064,154.400 227.899 C 154.400 227.609,153.905 227.067,153.300 226.694 C 152.695 226.321,151.416 225.289,150.458 224.401 L 148.716 222.786 149.796 221.370 C 151.765 218.788,150.285 216.896,147.900 218.947 M252.000 220.400 C 251.683 220.840,251.103 221.200,250.712 221.200 C 250.320 221.200,250.000 221.380,250.000 221.600 C 250.000 221.820,249.717 222.000,249.371 222.000 C 249.026 222.000,248.486 222.257,248.171 222.571 C 247.499 223.244,247.412 224.400,248.033 224.400 C 248.272 224.400,248.392 224.625,248.300 224.900 C 248.208 225.175,247.938 225.400,247.700 225.400 C 247.462 225.400,247.132 225.535,246.967 225.700 C 246.802 225.865,246.887 226.000,247.157 226.000 C 247.427 226.000,247.553 226.153,247.437 226.340 C 247.322 226.527,247.743 227.382,248.372 228.240 C 249.575 229.878,252.999 235.423,253.968 237.300 C 254.612 238.550,254.901 238.643,255.583 237.820 C 256.022 237.292,254.649 234.039,253.211 232.200 C 253.039 231.980,252.156 230.389,251.248 228.665 L 249.599 225.529 250.499 224.778 C 250.995 224.365,251.552 224.021,251.738 224.013 C 251.924 224.006,252.630 223.606,253.306 223.125 L 254.535 222.249 255.168 223.185 C 255.515 223.700,256.358 225.129,257.039 226.361 C 257.721 227.592,258.695 229.320,259.205 230.200 C 259.714 231.080,260.383 232.291,260.691 232.892 C 261.436 234.345,261.957 234.615,262.659 233.913 C 263.168 233.403,262.963 232.860,261.019 229.565 C 259.798 227.494,258.320 224.769,257.735 223.508 C 256.802 221.497,256.559 221.245,255.746 221.449 C 255.019 221.632,254.718 221.458,254.346 220.641 C 253.780 219.399,252.795 219.297,252.000 220.400 M169.013 221.120 C 168.275 221.859,168.993 222.836,170.995 223.815 C 173.163 224.876,174.405 224.911,174.395 223.913 C 174.385 222.869,169.697 220.436,169.013 221.120 M165.342 224.100 C 164.667 225.255,163.341 227.528,162.394 229.150 L 160.673 232.101 161.636 232.841 C 162.166 233.249,162.394 233.586,162.143 233.591 C 159.926 233.634,164.564 237.200,166.837 237.200 C 167.966 237.200,166.938 235.655,165.093 234.577 C 162.528 233.079,162.533 232.817,165.228 228.151 C 166.313 226.273,167.200 224.630,167.200 224.500 C 167.200 224.370,167.488 223.945,167.839 223.557 C 168.566 222.753,168.286 222.000,167.261 222.000 C 166.848 222.000,166.073 222.848,165.342 224.100 M271.133 225.031 C 268.849 226.493,267.726 228.800,269.299 228.800 C 269.952 228.800,273.600 225.888,273.600 225.367 C 273.600 224.236,272.591 224.099,271.133 225.031 M178.885 225.675 C 178.618 225.942,178.400 226.351,178.400 226.585 C 178.400 227.209,176.537 232.973,175.775 234.707 C 173.961 238.834,173.906 239.122,174.846 239.625 C 175.351 239.895,175.571 240.298,175.424 240.681 C 175.110 241.501,175.892 242.400,176.921 242.400 C 177.373 242.400,178.334 242.614,179.057 242.875 C 180.175 243.279,180.484 243.248,181.128 242.665 C 181.544 242.289,182.151 242.083,182.478 242.209 C 183.283 242.517,183.786 241.821,184.798 238.995 C 185.271 237.678,185.803 236.240,185.982 235.800 C 188.741 229.004,188.725 229.068,187.829 228.171 C 187.031 227.374,186.000 227.458,186.000 228.320 C 186.000 228.716,185.784 229.256,185.520 229.520 C 185.256 229.784,185.158 230.000,185.303 230.000 C 185.546 230.000,181.784 241.150,181.417 241.516 C 181.251 241.682,179.114 241.090,177.079 240.313 C 176.275 240.006,176.033 239.704,176.224 239.243 C 176.370 238.889,176.728 237.790,177.019 236.800 C 177.899 233.808,179.131 230.597,180.522 227.674 C 181.221 226.207,179.929 224.631,178.885 225.675 M172.548 227.369 C 169.567 231.463,167.724 235.575,168.582 236.220 C 169.546 236.945,169.793 236.716,171.619 233.400 C 175.035 227.196,175.238 226.728,174.762 226.154 C 174.106 225.363,173.944 225.452,172.548 227.369 M239.800 226.400 C 239.936 226.620,239.764 226.800,239.418 226.800 C 239.072 226.800,238.387 227.008,237.895 227.262 C 237.403 227.516,236.746 227.841,236.435 227.984 C 235.761 228.293,235.488 229.600,236.097 229.600 C 236.332 229.600,236.226 229.929,235.862 230.331 C 235.032 231.248,235.028 231.771,235.842 232.585 C 236.647 233.390,237.600 232.745,237.600 231.395 C 237.600 230.718,238.031 230.289,239.300 229.702 C 242.444 228.247,242.986 228.252,243.524 229.740 C 244.325 231.956,244.167 232.240,241.600 233.200 C 239.582 233.955,239.200 234.250,239.200 235.059 C 239.200 235.716,238.884 236.140,238.200 236.400 C 237.266 236.755,236.672 238.793,237.500 238.804 C 237.665 238.806,238.155 239.616,238.590 240.604 C 240.055 243.937,241.599 242.569,240.446 238.959 C 239.566 236.204,239.557 236.233,241.701 235.197 C 244.980 233.613,245.384 233.867,246.638 238.309 C 246.833 239.001,247.967 239.393,248.430 238.930 C 248.665 238.695,248.412 237.586,247.755 235.977 C 247.177 234.560,246.263 232.005,245.725 230.300 C 244.789 227.339,244.346 226.717,243.800 227.600 C 243.375 228.287,242.897 228.040,242.636 227.000 C 242.427 226.169,242.146 226.000,240.969 226.000 C 240.127 226.000,239.653 226.162,239.800 226.400 M210.466 228.267 C 210.210 228.542,210.000 229.044,210.000 229.383 C 210.000 229.743,209.650 230.000,209.161 230.000 C 208.321 230.000,208.228 233.839,208.952 238.600 C 209.053 239.260,209.150 241.825,209.168 244.300 L 209.200 248.800 212.500 248.765 C 217.987 248.707,219.778 248.353,219.928 247.300 C 220.010 246.722,220.332 246.400,220.828 246.400 C 221.713 246.400,222.011 238.716,221.186 237.174 C 219.883 234.740,219.252 237.449,219.528 244.290 C 219.596 245.973,219.499 246.336,219.032 246.157 C 218.713 246.035,217.155 246.250,215.570 246.635 C 211.883 247.531,211.805 247.435,211.433 241.559 C 211.102 236.324,210.898 236.657,214.521 236.495 C 218.574 236.313,219.200 236.133,219.200 235.149 C 219.200 234.338,219.081 234.322,215.200 234.600 L 211.200 234.886 211.200 233.067 C 211.200 230.811,211.344 230.724,215.567 230.435 C 219.068 230.195,220.495 229.075,218.735 227.948 C 217.906 227.417,211.012 227.683,210.466 228.267 M230.247 229.675 C 230.341 229.827,229.738 230.007,228.908 230.075 C 227.367 230.203,227.382 230.177,227.737 232.150 C 227.894 233.020,226.763 232.756,226.415 231.841 C 226.089 230.982,225.878 230.872,225.113 231.159 C 223.837 231.638,223.855 231.869,225.937 241.400 C 226.370 243.380,226.853 245.585,227.012 246.300 C 227.328 247.728,227.541 247.845,228.473 247.100 C 229.036 246.650,228.985 246.100,227.961 241.600 C 226.595 235.595,226.580 235.324,227.600 235.000 C 228.111 234.838,228.400 234.395,228.400 233.773 C 228.400 233.074,228.620 232.800,229.181 232.800 C 230.814 232.800,231.918 231.952,232.079 230.576 C 232.222 229.344,232.154 229.251,231.156 229.323 C 230.563 229.365,230.154 229.524,230.247 229.675 M191.010 230.500 C 190.919 230.775,190.662 232.170,190.438 233.600 C 190.213 235.030,189.640 237.910,189.164 240.000 C 187.788 246.040,187.766 246.400,188.766 246.400 C 189.850 246.400,190.079 245.778,191.236 239.673 C 192.143 234.894,192.204 234.739,193.285 234.523 C 194.507 234.279,194.910 232.800,193.755 232.800 C 193.267 232.800,193.152 232.511,193.283 231.615 C 193.397 230.840,193.263 230.356,192.896 230.215 C 191.958 229.856,191.184 229.973,191.010 230.500 M219.200 232.149 C 219.200 234.059,219.696 234.750,220.556 234.036 C 221.439 233.304,221.058 230.624,220.049 230.472 C 219.290 230.358,219.200 230.536,219.200 232.149 M195.085 231.048 C 194.280 231.854,194.870 232.788,196.455 233.215 C 198.444 233.750,199.745 232.957,198.952 231.692 C 198.508 230.983,195.630 230.503,195.085 231.048 M244.301 240.702 C 240.572 242.483,241.556 243.960,245.425 242.390 C 247.203 241.668,247.617 241.329,247.521 240.676 C 247.343 239.481,246.850 239.485,244.301 240.702 " stroke="none" fill="#fbfbfb" fill-rule="evenodd"></path><path id="path2" d="M252.501 158.600 C 252.505 159.480,252.587 159.793,252.683 159.295 C 252.779 158.798,252.775 158.078,252.675 157.695 C 252.575 157.313,252.496 157.720,252.501 158.600 M181.200 195.000 C 181.946 195.770,182.647 196.400,182.757 196.400 C 182.867 196.400,182.346 195.770,181.600 195.000 C 180.854 194.230,180.153 193.600,180.043 193.600 C 179.933 193.600,180.454 194.230,181.200 195.000 M213.100 216.282 C 213.595 216.378,214.405 216.378,214.900 216.282 C 215.395 216.187,214.990 216.109,214.000 216.109 C 213.010 216.109,212.605 216.187,213.100 216.282 M221.193 232.119 L 221.385 234.200 221.518 232.446 C 221.591 231.481,221.505 230.544,221.326 230.365 C 221.147 230.185,221.087 230.975,221.193 232.119 " stroke="none" fill="#cccccc" fill-rule="evenodd"></path><path id="path3" d="M221.293 60.800 C 221.293 61.570,221.375 61.885,221.476 61.500 C 221.576 61.115,221.576 60.485,221.476 60.100 C 221.375 59.715,221.293 60.030,221.293 60.800 M224.514 61.400 C 224.517 62.500,224.595 62.903,224.687 62.295 C 224.779 61.686,224.777 60.786,224.682 60.295 C 224.587 59.803,224.511 60.300,224.514 61.400 M266.000 83.858 C 266.000 84.074,266.585 84.779,267.300 85.425 L 268.600 86.600 267.400 85.202 C 266.740 84.433,266.155 83.728,266.100 83.635 C 266.045 83.543,266.000 83.643,266.000 83.858 M162.509 148.400 C 162.509 149.390,162.587 149.795,162.682 149.300 C 162.778 148.805,162.778 147.995,162.682 147.500 C 162.587 147.005,162.509 147.410,162.509 148.400 M265.293 161.200 C 265.293 161.970,265.375 162.285,265.476 161.900 C 265.576 161.515,265.576 160.885,265.476 160.500 C 265.375 160.115,265.293 160.430,265.293 161.200 M252.924 166.200 C 252.926 167.520,253.001 168.012,253.090 167.293 C 253.179 166.574,253.177 165.494,253.086 164.893 C 252.995 164.292,252.922 164.880,252.924 166.200 M252.934 192.000 C 252.934 193.650,253.005 194.325,253.091 193.500 C 253.178 192.675,253.178 191.325,253.091 190.500 C 253.005 189.675,252.934 190.350,252.934 192.000 M210.500 216.276 C 210.885 216.376,211.515 216.376,211.900 216.276 C 212.285 216.175,211.970 216.093,211.200 216.093 C 210.430 216.093,210.115 216.175,210.500 216.276 M215.905 230.683 C 216.402 230.779,217.122 230.775,217.505 230.675 C 217.887 230.575,217.480 230.496,216.600 230.501 C 215.720 230.505,215.407 230.587,215.905 230.683 M218.790 232.319 L 218.983 234.200 219.119 232.647 C 219.193 231.793,219.107 230.947,218.926 230.766 C 218.745 230.585,218.684 231.284,218.790 232.319 M221.693 240.800 C 221.693 241.570,221.775 241.885,221.876 241.500 C 221.976 241.115,221.976 240.485,221.876 240.100 C 221.775 239.715,221.693 240.030,221.693 240.800 " stroke="none" fill="#bcbcbc" fill-rule="evenodd"></path><path id="path4" d="M216.000 46.955 C 216.000 47.289,218.411 47.440,218.891 47.135 C 219.196 46.942,218.720 46.810,217.700 46.806 C 216.765 46.803,216.000 46.870,216.000 46.955 M219.206 49.084 C 219.202 49.416,218.095 49.611,215.700 49.702 L 212.200 49.835 215.672 49.918 C 218.939 49.995,219.152 50.053,219.272 50.900 C 219.466 52.266,221.400 52.180,221.400 50.805 C 221.400 50.128,221.145 49.763,220.600 49.659 C 220.160 49.576,219.668 49.303,219.506 49.054 C 219.293 48.724,219.211 48.733,219.206 49.084 M221.000 50.800 C 221.000 51.124,220.685 51.450,220.300 51.524 C 219.809 51.618,219.600 51.402,219.600 50.800 C 219.600 50.198,219.809 49.982,220.300 50.076 C 220.685 50.150,221.000 50.476,221.000 50.800 M216.500 55.476 C 216.885 55.576,217.515 55.576,217.900 55.476 C 218.285 55.375,217.970 55.293,217.200 55.293 C 216.430 55.293,216.115 55.375,216.500 55.476 M214.924 56.254 C 214.495 57.371,215.366 58.196,217.041 58.258 L 218.600 58.316 217.000 58.058 C 215.578 57.829,215.402 57.677,215.416 56.700 C 215.434 55.445,215.286 55.311,214.924 56.254 M219.163 57.042 C 218.984 58.114,219.060 58.257,219.719 58.085 C 220.138 57.975,220.641 58.136,220.835 58.443 C 221.121 58.894,221.189 58.898,221.194 58.463 C 221.197 58.167,220.850 57.834,220.422 57.722 C 219.995 57.610,219.583 57.132,219.508 56.659 C 219.401 55.992,219.324 56.077,219.163 57.042 M191.475 57.570 C 191.032 58.458,191.015 58.693,191.404 58.543 C 191.686 58.435,192.001 57.908,192.103 57.373 C 192.347 56.094,192.186 56.145,191.475 57.570 M210.881 62.300 C 210.837 64.115,210.645 65.600,210.455 65.600 C 210.057 65.600,210.350 67.522,210.790 67.794 C 210.952 67.894,210.999 67.531,210.896 66.988 C 210.715 66.043,210.801 65.997,212.853 65.928 L 215.000 65.856 213.116 65.707 L 211.232 65.557 211.097 62.279 L 210.963 59.000 210.881 62.300 M220.937 62.200 C 220.939 63.960,221.009 64.630,221.093 63.689 C 221.178 62.749,221.177 61.309,221.091 60.489 C 221.005 59.670,220.936 60.440,220.937 62.200 M181.040 61.960 C 181.380 62.642,181.719 63.200,181.792 63.200 C 182.118 63.200,181.459 61.581,180.967 61.173 C 180.555 60.830,180.572 61.022,181.040 61.960 M218.256 63.284 C 218.121 63.788,218.027 64.560,218.046 65.000 C 218.065 65.440,218.245 65.098,218.446 64.240 C 218.836 62.578,218.670 61.740,218.256 63.284 M183.506 67.818 C 183.610 68.365,183.828 68.894,183.990 68.994 C 184.152 69.094,184.199 68.729,184.094 68.182 C 183.990 67.635,183.772 67.106,183.610 67.006 C 183.448 66.906,183.401 67.271,183.506 67.818 M233.449 67.815 C 233.312 68.173,233.200 68.502,233.200 68.547 C 233.200 68.592,233.550 68.629,233.978 68.629 C 234.612 68.629,234.670 68.515,234.291 68.014 C 234.035 67.676,233.798 67.347,233.763 67.283 C 233.728 67.218,233.587 67.458,233.449 67.815 M163.322 68.629 L 162.200 69.658 163.500 68.754 C 164.215 68.257,164.800 67.793,164.800 67.725 C 164.800 67.409,164.358 67.680,163.322 68.629 M268.473 68.368 C 268.852 68.976,268.837 69.287,268.398 69.868 C 267.878 70.555,267.888 70.560,268.563 69.945 C 269.293 69.279,269.155 67.600,268.370 67.600 C 268.163 67.600,268.209 67.945,268.473 68.368 M192.265 69.343 C 192.426 70.102,192.322 70.604,191.954 70.837 C 191.537 71.101,191.526 71.189,191.913 71.194 C 192.673 71.203,192.964 70.079,192.462 69.078 C 192.062 68.281,192.044 68.305,192.265 69.343 M236.758 69.166 C 237.969 69.932,236.906 70.884,235.099 70.651 L 233.400 70.431 234.937 70.864 C 236.199 71.219,236.585 71.186,237.092 70.680 C 237.770 70.002,237.526 68.796,236.713 68.806 C 236.329 68.811,236.341 68.901,236.758 69.166 M276.175 72.100 L 275.000 73.400 276.300 72.225 C 277.015 71.579,277.600 70.994,277.600 70.925 C 277.600 70.616,277.270 70.888,276.175 72.100 M171.231 73.900 C 172.248 75.600,172.800 76.294,172.800 75.871 C 172.800 75.506,170.755 72.400,170.514 72.400 C 170.416 72.400,170.738 73.075,171.231 73.900 M177.192 73.100 C 177.432 73.595,177.937 73.986,178.314 73.968 C 178.870 73.943,178.886 73.893,178.400 73.704 C 178.070 73.575,177.565 73.184,177.278 72.835 C 176.835 72.296,176.822 72.337,177.192 73.100 M179.200 73.037 C 179.200 73.656,180.223 73.811,180.572 73.245 C 180.692 73.050,180.433 72.797,179.996 72.683 C 179.480 72.548,179.200 72.673,179.200 73.037 M162.000 74.400 C 162.470 75.060,162.944 75.600,163.054 75.600 C 163.164 75.600,162.870 75.060,162.400 74.400 C 161.930 73.740,161.456 73.200,161.346 73.200 C 161.236 73.200,161.530 73.740,162.000 74.400 M276.600 75.200 C 277.459 76.080,278.252 76.800,278.362 76.800 C 278.472 76.800,277.859 76.080,277.000 75.200 C 276.141 74.320,275.348 73.600,275.238 73.600 C 275.128 73.600,275.741 74.320,276.600 75.200 M180.409 74.967 C 180.630 75.190,181.133 75.172,181.687 74.923 C 182.537 74.540,182.512 74.514,181.322 74.556 C 180.548 74.582,180.187 74.745,180.409 74.967 M272.562 76.100 C 271.801 76.999,271.801 76.999,272.631 76.300 C 273.089 75.915,273.615 75.600,273.800 75.600 C 273.985 75.600,274.511 75.915,274.969 76.300 C 275.799 76.999,275.799 76.999,275.038 76.100 C 274.619 75.605,274.062 75.200,273.800 75.200 C 273.538 75.200,272.981 75.605,272.562 76.100 M254.596 76.007 C 254.458 76.230,254.177 76.309,253.972 76.183 C 253.768 76.056,253.600 76.219,253.600 76.544 C 253.600 76.869,253.504 77.464,253.388 77.867 C 253.260 78.307,253.365 78.240,253.649 77.700 C 253.909 77.205,254.255 76.800,254.418 76.800 C 254.581 76.800,254.818 76.530,254.945 76.200 C 255.206 75.520,254.976 75.392,254.596 76.007 M278.832 77.313 C 278.814 77.704,278.530 78.129,278.200 78.255 C 277.424 78.553,277.434 79.051,278.221 79.353 C 278.591 79.495,278.739 79.424,278.586 79.178 C 278.446 78.951,278.544 78.509,278.803 78.196 C 279.063 77.883,279.183 77.396,279.069 77.113 C 278.942 76.795,278.851 76.871,278.832 77.313 M169.970 78.300 L 169.000 79.400 170.200 78.400 C 170.860 77.850,171.475 77.355,171.567 77.300 C 171.658 77.245,171.555 77.200,171.336 77.200 C 171.118 77.200,170.503 77.695,169.970 78.300 M159.200 77.725 C 159.200 77.794,159.785 78.379,160.500 79.025 L 161.800 80.200 160.625 78.900 C 159.530 77.688,159.200 77.416,159.200 77.725 M269.381 79.700 L 267.800 81.400 269.500 79.819 C 271.081 78.348,271.384 78.000,271.081 78.000 C 271.016 78.000,270.251 78.765,269.381 79.700 M155.375 79.700 L 154.200 81.000 155.500 79.825 C 156.712 78.730,156.984 78.400,156.675 78.400 C 156.606 78.400,156.021 78.985,155.375 79.700 M259.276 79.144 C 258.885 79.392,259.037 79.660,259.876 80.200 C 260.991 80.918,260.994 80.917,260.299 80.129 C 259.914 79.693,259.719 79.215,259.866 79.068 C 260.233 78.700,259.911 78.742,259.276 79.144 M168.000 79.556 C 168.000 80.324,169.468 81.737,169.766 81.255 C 169.942 80.971,169.851 80.824,169.539 80.890 C 169.253 80.951,168.957 80.595,168.882 80.100 C 168.752 79.253,168.000 78.788,168.000 79.556 M148.800 81.078 C 149.759 82.304,150.425 82.735,150.378 82.100 C 150.366 81.935,149.781 81.350,149.078 80.800 L 147.800 79.800 148.800 81.078 M230.033 81.344 C 230.505 81.750,232.443 81.993,232.210 81.616 C 232.068 81.387,231.483 81.200,230.910 81.200 C 230.336 81.200,229.942 81.265,230.033 81.344 M276.975 83.300 L 275.800 84.600 277.100 83.425 C 277.815 82.779,278.400 82.194,278.400 82.125 C 278.400 81.816,278.070 82.088,276.975 83.300 M161.244 83.100 C 161.545 83.595,161.940 84.000,162.120 84.000 C 162.300 84.000,162.336 84.180,162.200 84.400 C 162.064 84.620,162.124 84.800,162.334 84.800 C 162.543 84.800,162.833 84.490,162.978 84.112 C 163.124 83.734,163.111 83.556,162.951 83.716 C 162.791 83.876,162.217 83.601,161.677 83.104 L 160.695 82.200 161.244 83.100 M265.980 83.424 C 265.541 83.953,265.669 84.241,266.822 85.324 L 268.182 86.600 267.030 85.314 C 266.067 84.240,265.962 83.928,266.388 83.414 C 266.668 83.077,266.808 82.800,266.698 82.800 C 266.588 82.800,266.265 83.081,265.980 83.424 M241.746 85.002 C 242.376 85.331,243.096 85.599,243.346 85.598 C 243.596 85.596,243.284 85.326,242.654 84.998 C 242.024 84.669,241.304 84.401,241.054 84.402 C 240.804 84.404,241.116 84.674,241.746 85.002 M264.056 84.933 C 263.569 85.519,263.964 86.187,265.400 87.208 C 266.025 87.651,265.992 87.542,265.249 86.708 C 264.703 86.095,264.400 85.377,264.537 85.020 C 264.829 84.259,264.643 84.225,264.056 84.933 M163.232 85.569 C 163.214 85.881,162.892 86.511,162.515 86.969 C 161.869 87.753,161.883 87.751,162.762 86.942 C 163.275 86.470,163.597 85.840,163.479 85.542 C 163.304 85.103,163.257 85.108,163.232 85.569 M272.915 87.610 C 271.989 88.485,271.367 89.200,271.534 89.200 C 271.701 89.200,272.541 88.480,273.400 87.600 C 275.410 85.541,275.100 85.548,272.915 87.610 M153.600 86.684 C 153.930 86.805,154.560 87.196,155.000 87.552 C 155.793 88.194,155.794 88.192,155.038 87.300 C 154.619 86.805,153.989 86.414,153.638 86.432 C 153.096 86.458,153.091 86.497,153.600 86.684 M227.400 87.600 C 227.840 87.789,228.470 87.944,228.800 87.944 C 229.178 87.944,229.104 87.817,228.600 87.600 C 228.160 87.411,227.530 87.256,227.200 87.256 C 226.822 87.256,226.896 87.383,227.400 87.600 M159.978 89.100 L 158.600 90.600 160.100 89.222 C 160.925 88.463,161.600 87.788,161.600 87.722 C 161.600 87.416,161.262 87.704,159.978 89.100 M155.872 89.044 C 155.972 89.304,155.642 89.806,155.138 90.158 C 154.634 90.511,154.429 90.800,154.682 90.800 C 154.936 90.800,155.408 90.535,155.732 90.211 C 156.250 89.693,156.379 89.693,156.809 90.211 C 157.078 90.535,157.591 90.789,157.949 90.775 C 158.369 90.758,158.264 90.615,157.654 90.371 C 157.022 90.117,156.770 89.757,156.895 89.282 C 157.020 88.803,156.854 88.571,156.386 88.571 C 156.004 88.571,155.773 88.784,155.872 89.044 M251.200 89.564 C 251.750 90.014,252.380 90.383,252.600 90.385 C 253.028 90.388,252.305 89.834,251.000 89.160 C 250.469 88.885,250.536 89.021,251.200 89.564 M260.544 95.509 C 260.860 96.021,263.200 97.753,263.200 97.475 C 263.200 97.376,262.539 96.791,261.732 96.175 C 260.924 95.559,260.389 95.259,260.544 95.509 M265.719 99.228 C 266.806 100.070,266.818 100.118,266.119 100.904 C 265.414 101.698,265.417 101.703,266.300 101.160 C 267.548 100.394,267.425 99.730,265.900 98.991 L 264.600 98.361 265.719 99.228 M251.617 112.983 C 250.655 113.963,249.689 114.655,249.472 114.521 C 249.240 114.377,249.204 114.483,249.386 114.777 C 249.637 115.184,253.600 111.929,253.600 111.315 C 253.600 111.025,253.249 111.320,251.617 112.983 M206.025 136.600 C 206.025 136.820,206.290 137.349,206.613 137.776 C 206.936 138.204,207.200 138.373,207.200 138.153 C 207.200 137.933,206.936 137.404,206.613 136.976 C 206.290 136.549,206.025 136.380,206.025 136.600 M222.346 138.816 C 221.766 139.467,221.424 140.000,221.584 140.000 C 221.893 140.000,222.885 138.940,223.363 138.100 C 223.815 137.305,223.481 137.540,222.346 138.816 M218.109 142.400 C 218.109 143.390,218.187 143.795,218.282 143.300 C 218.378 142.805,218.378 141.995,218.282 141.500 C 218.187 141.005,218.109 141.410,218.109 142.400 M162.509 143.200 C 162.509 144.190,162.587 144.595,162.682 144.100 C 162.778 143.605,162.778 142.795,162.682 142.300 C 162.587 141.805,162.509 142.210,162.509 143.200 M205.797 143.601 C 207.693 145.818,207.720 145.842,207.286 145.000 C 207.059 144.560,206.362 143.751,205.737 143.201 L 204.600 142.203 205.797 143.601 M208.400 145.982 C 208.730 146.205,209.345 146.391,209.767 146.394 C 210.790 146.402,210.471 146.173,209.000 145.844 C 208.124 145.648,207.962 145.685,208.400 145.982 M224.200 147.990 C 223.717 148.192,224.351 148.238,225.800 148.107 C 227.120 147.987,228.275 147.824,228.367 147.745 C 228.707 147.449,224.970 147.669,224.200 147.990 M232.900 147.876 C 233.285 147.976,233.915 147.976,234.300 147.876 C 234.685 147.775,234.370 147.693,233.600 147.693 C 232.830 147.693,232.515 147.775,232.900 147.876 M240.500 147.887 C 241.105 147.978,242.095 147.978,242.700 147.887 C 243.305 147.795,242.810 147.720,241.600 147.720 C 240.390 147.720,239.895 147.795,240.500 147.887 M250.900 147.894 C 251.945 147.976,253.655 147.976,254.700 147.894 C 255.745 147.812,254.890 147.744,252.800 147.744 C 250.710 147.744,249.855 147.812,250.900 147.894 M271.097 147.864 C 271.480 148.019,271.488 148.262,271.131 148.932 C 270.714 149.716,270.733 149.747,271.335 149.251 C 272.207 148.531,272.187 147.592,271.300 147.632 C 270.887 147.650,270.804 147.745,271.097 147.864 M162.514 153.400 C 162.517 154.500,162.595 154.903,162.687 154.295 C 162.779 153.686,162.777 152.786,162.682 152.295 C 162.587 151.803,162.511 152.300,162.514 153.400 M234.476 152.699 C 237.268 152.767,241.948 152.768,244.876 152.699 C 247.804 152.631,245.520 152.575,239.800 152.574 C 234.080 152.574,231.684 152.630,234.476 152.699 M252.893 160.400 C 252.893 161.170,252.975 161.485,253.076 161.100 C 253.176 160.715,253.176 160.085,253.076 159.700 C 252.975 159.315,252.893 159.630,252.893 160.400 M264.983 176.800 C 264.983 186.150,265.036 189.975,265.100 185.300 C 265.164 180.625,265.164 172.975,265.100 168.300 C 265.036 163.625,264.983 167.450,264.983 176.800 M151.606 164.433 C 151.609 164.965,151.789 165.670,152.006 166.000 C 152.282 166.422,152.323 166.185,152.142 165.200 C 151.825 163.475,151.598 163.149,151.606 164.433 M152.400 167.776 C 152.400 168.313,152.547 168.844,152.728 168.955 C 152.908 169.067,152.977 168.627,152.882 167.979 C 152.672 166.549,152.400 166.435,152.400 167.776 M155.479 175.900 C 155.767 176.694,156.800 178.297,156.800 177.950 C 156.800 177.602,155.563 175.200,155.383 175.200 C 155.296 175.200,155.339 175.515,155.479 175.900 M158.760 182.200 C 159.434 183.505,159.988 184.228,159.985 183.800 C 159.983 183.580,159.614 182.950,159.164 182.400 C 158.621 181.736,158.485 181.669,158.760 182.200 M176.800 190.525 C 176.800 190.594,177.385 191.179,178.100 191.825 L 179.400 193.000 178.225 191.700 C 177.130 190.488,176.800 190.216,176.800 190.525 M164.800 191.325 C 164.800 191.394,165.385 191.979,166.100 192.625 L 167.400 193.800 166.225 192.500 C 165.130 191.288,164.800 191.016,164.800 191.325 M169.583 196.500 C 170.564 197.545,171.419 198.400,171.483 198.400 C 171.784 198.400,171.466 198.041,169.700 196.383 L 167.800 194.600 169.583 196.500 M174.286 200.880 C 176.699 202.919,177.187 203.148,175.214 201.315 C 174.216 200.389,173.259 199.624,173.086 199.615 C 172.913 199.607,173.453 200.176,174.286 200.880 M205.905 208.683 C 206.402 208.779,207.122 208.775,207.505 208.675 C 207.887 208.575,207.480 208.496,206.600 208.501 C 205.720 208.505,205.407 208.587,205.905 208.683 M155.862 213.931 C 154.942 214.948,155.029 215.399,156.300 216.212 L 157.400 216.915 156.434 215.862 C 155.496 214.839,155.489 214.785,156.196 214.004 C 156.596 213.562,156.834 213.200,156.724 213.200 C 156.614 213.200,156.226 213.529,155.862 213.931 M202.000 214.782 C 202.330 215.005,202.945 215.191,203.367 215.194 C 204.390 215.202,204.071 214.973,202.600 214.644 C 201.724 214.448,201.562 214.485,202.000 214.782 M267.200 214.525 C 267.200 214.594,267.785 215.179,268.500 215.825 L 269.800 217.000 268.625 215.700 C 267.530 214.488,267.200 214.216,267.200 214.525 M264.800 215.082 C 265.130 215.203,265.850 215.684,266.400 216.151 L 267.400 217.000 266.430 215.900 C 265.897 215.295,265.177 214.814,264.830 214.832 C 264.291 214.859,264.286 214.895,264.800 215.082 M208.100 215.876 C 208.485 215.976,209.115 215.976,209.500 215.876 C 209.885 215.775,209.570 215.693,208.800 215.693 C 208.030 215.693,207.715 215.775,208.100 215.876 M216.100 216.276 C 216.485 216.376,217.115 216.376,217.500 216.276 C 217.885 216.175,217.570 216.093,216.800 216.093 C 216.030 216.093,215.715 216.175,216.100 216.276 M160.161 219.099 C 160.855 219.918,162.000 219.777,162.000 218.871 C 162.000 218.744,161.786 218.854,161.525 219.115 C 161.159 219.481,160.862 219.430,160.225 218.895 C 159.402 218.202,159.402 218.202,160.161 219.099 M162.778 221.100 L 161.400 222.600 162.900 221.222 C 164.296 219.938,164.584 219.600,164.278 219.600 C 164.212 219.600,163.537 220.275,162.778 221.100 M256.000 220.847 C 256.000 221.106,255.641 221.199,255.142 221.069 C 254.547 220.913,254.412 220.972,254.702 221.262 C 255.170 221.730,256.800 221.350,256.800 220.773 C 256.800 220.568,256.620 220.400,256.400 220.400 C 256.180 220.400,256.000 220.601,256.000 220.847 M260.383 222.100 C 261.364 223.145,262.219 224.000,262.283 224.000 C 262.584 224.000,262.266 223.641,260.500 221.983 L 258.600 220.200 260.383 222.100 M171.600 221.346 C 171.600 221.456,172.140 221.930,172.800 222.400 C 173.460 222.870,174.000 223.164,174.000 223.054 C 174.000 222.944,173.460 222.470,172.800 222.000 C 172.140 221.530,171.600 221.236,171.600 221.346 M167.124 221.879 C 167.633 221.980,168.147 222.318,168.267 222.631 C 168.584 223.457,169.159 223.330,168.938 222.483 C 168.810 221.994,168.345 221.755,167.475 221.731 C 166.618 221.707,166.503 221.755,167.124 221.879 M147.200 222.800 C 147.600 223.058,147.633 223.190,147.300 223.194 C 147.025 223.197,146.800 223.402,146.800 223.649 C 146.800 223.961,146.982 223.947,147.396 223.604 C 148.035 223.073,147.855 222.396,147.076 222.406 C 146.790 222.410,146.839 222.567,147.200 222.800 M271.878 224.023 C 271.715 224.647,271.784 224.746,272.161 224.432 C 272.508 224.144,272.826 224.168,273.210 224.510 C 273.668 224.917,273.681 224.892,273.284 224.363 C 273.022 224.013,272.925 223.608,273.070 223.463 C 273.215 223.318,273.054 223.200,272.713 223.200 C 272.372 223.200,271.996 223.570,271.878 224.023 M151.099 224.911 C 153.579 227.076,154.345 227.479,152.200 225.490 C 151.100 224.470,150.064 223.628,149.899 223.618 C 149.733 223.608,150.273 224.190,151.099 224.911 M147.200 224.979 C 147.200 225.089,147.740 225.459,148.400 225.800 C 149.060 226.141,149.600 226.331,149.600 226.221 C 149.600 226.111,149.060 225.741,148.400 225.400 C 147.740 225.059,147.200 224.869,147.200 224.979 M266.955 226.692 C 267.610 227.467,267.637 227.679,267.155 228.292 C 266.654 228.931,266.666 228.948,267.282 228.466 C 267.658 228.172,268.123 228.029,268.316 228.148 C 268.509 228.267,268.667 228.103,268.667 227.782 C 268.667 227.462,268.486 227.200,268.265 227.200 C 268.044 227.200,267.489 226.885,267.031 226.500 C 266.202 225.802,266.202 225.802,266.955 226.692 M154.900 227.065 C 154.169 227.360,154.284 227.736,155.300 228.368 C 156.116 228.876,156.150 228.868,155.666 228.282 C 155.372 227.926,155.247 227.447,155.389 227.218 C 155.668 226.767,155.651 226.762,154.900 227.065 M219.150 229.264 C 218.954 230.191,219.068 230.348,220.041 230.491 C 220.655 230.582,221.067 230.508,220.955 230.328 C 220.844 230.147,220.506 230.000,220.204 230.000 C 219.902 230.000,219.593 229.595,219.516 229.100 C 219.386 228.261,219.361 228.272,219.150 229.264 M232.060 230.639 C 232.019 231.492,231.720 232.013,231.100 232.312 C 230.605 232.551,230.391 232.758,230.624 232.773 C 231.634 232.838,232.466 231.745,232.294 230.580 L 232.120 229.400 232.060 230.639 M194.432 231.871 C 194.414 232.130,194.085 232.424,193.700 232.524 C 193.033 232.698,193.033 232.709,193.700 232.754 C 194.085 232.779,194.400 232.974,194.400 233.187 C 194.400 233.401,194.685 233.465,195.034 233.332 C 195.382 233.198,195.499 232.979,195.294 232.844 C 195.088 232.710,194.817 232.330,194.692 232.000 C 194.566 231.670,194.449 231.612,194.432 231.871 M177.665 234.617 C 177.409 235.178,177.207 235.854,177.216 236.119 C 177.224 236.383,177.497 235.988,177.822 235.239 C 178.505 233.665,178.361 233.090,177.665 234.617 M239.067 233.867 C 238.920 234.013,238.800 234.538,238.800 235.033 C 238.800 235.528,238.616 236.025,238.390 236.137 C 238.165 236.249,238.210 236.294,238.490 236.239 C 238.770 236.183,239.063 235.701,239.140 235.169 C 239.218 234.636,239.488 234.068,239.740 233.906 C 240.046 233.711,240.055 233.610,239.767 233.606 C 239.528 233.603,239.213 233.720,239.067 233.867 M165.776 234.981 C 166.204 235.321,166.699 235.600,166.876 235.600 C 167.054 235.600,167.200 235.825,167.200 236.100 C 167.200 236.375,167.630 236.625,168.155 236.655 C 169.045 236.706,169.066 236.663,168.455 236.022 C 168.095 235.643,167.732 235.386,167.649 235.451 C 167.566 235.515,166.936 235.297,166.249 234.965 C 165.117 234.418,165.073 234.419,165.776 234.981 M212.100 234.687 C 212.705 234.778,213.695 234.778,214.300 234.687 C 214.905 234.595,214.410 234.520,213.200 234.520 C 211.990 234.520,211.495 234.595,212.100 234.687 M218.884 235.844 C 218.506 236.252,218.495 236.400,218.845 236.400 C 219.197 236.400,219.258 237.434,219.078 240.387 C 218.944 242.580,218.970 244.458,219.135 244.560 C 219.301 244.662,219.440 244.173,219.445 243.473 C 219.497 236.354,219.875 234.975,221.195 237.100 C 221.593 237.741,221.619 237.733,221.510 237.005 C 221.445 236.567,221.033 236.141,220.595 236.058 C 220.158 235.975,219.710 235.768,219.600 235.598 C 219.490 235.428,219.168 235.539,218.884 235.844 M255.606 236.326 C 255.951 237.037,255.933 237.407,255.528 237.926 C 255.054 238.531,255.071 238.544,255.700 238.051 C 256.558 237.378,256.567 237.162,255.778 236.176 C 255.184 235.435,255.176 235.442,255.606 236.326 M213.491 236.689 C 214.201 236.777,215.461 236.779,216.291 236.692 C 217.121 236.605,216.540 236.533,215.000 236.531 C 213.460 236.529,212.781 236.600,213.491 236.689 M208.400 238.110 C 208.400 238.903,208.567 239.656,208.770 239.782 C 208.980 239.911,209.083 239.387,209.007 238.576 C 208.828 236.640,208.400 236.312,208.400 238.110 M211.301 239.400 C 211.305 240.280,211.387 240.593,211.483 240.095 C 211.579 239.598,211.575 238.878,211.475 238.495 C 211.375 238.113,211.296 238.520,211.301 239.400 M246.400 238.963 C 246.400 239.277,246.175 239.620,245.900 239.726 C 245.625 239.832,245.895 239.877,246.501 239.826 C 247.959 239.702,248.125 239.471,247.182 238.881 C 246.543 238.483,246.400 238.498,246.400 238.963 M174.982 240.607 C 174.992 241.131,175.261 241.794,175.581 242.080 C 176.076 242.524,176.090 242.505,175.674 241.951 C 175.406 241.594,175.292 241.027,175.420 240.691 C 175.549 240.356,175.499 239.985,175.309 239.867 C 175.119 239.750,174.972 240.083,174.982 240.607 M241.005 240.718 C 241.150 241.002,241.028 241.532,240.734 241.894 C 240.293 242.439,240.292 242.498,240.732 242.233 C 241.075 242.027,241.474 242.213,241.855 242.757 C 242.180 243.220,242.660 243.595,242.923 243.588 C 243.185 243.581,243.085 243.392,242.700 243.168 C 242.315 242.944,242.000 242.534,242.000 242.257 C 242.000 241.980,241.717 241.404,241.370 240.976 C 241.024 240.549,240.860 240.433,241.005 240.718 M180.856 242.813 C 180.336 243.246,180.084 243.600,180.294 243.600 C 180.505 243.600,181.093 243.240,181.600 242.800 C 182.793 241.765,182.099 241.777,180.856 242.813 M211.720 244.000 C 211.720 245.210,211.795 245.705,211.887 245.100 C 211.978 244.495,211.978 243.505,211.887 242.900 C 211.795 242.295,211.720 242.790,211.720 244.000 M228.244 243.000 C 228.573 244.471,228.802 244.790,228.794 243.767 C 228.791 243.345,228.605 242.730,228.382 242.400 C 228.085 241.962,228.048 242.124,228.244 243.000 M221.714 244.600 C 221.717 245.700,221.795 246.103,221.887 245.495 C 221.979 244.886,221.977 243.986,221.882 243.495 C 221.787 243.003,221.711 243.500,221.714 244.600 M187.734 245.596 C 187.779 246.272,188.057 246.618,188.600 246.673 C 189.176 246.731,189.211 246.698,188.725 246.552 C 188.353 246.442,187.964 245.957,187.859 245.475 C 187.700 244.742,187.680 244.761,187.734 245.596 M218.000 248.400 L 216.200 248.680 217.876 248.740 C 218.798 248.773,219.664 248.620,219.800 248.400 C 219.936 248.180,219.992 248.027,219.924 248.060 C 219.856 248.093,218.990 248.246,218.000 248.400 " stroke="none" fill="#d4d5d5" fill-rule="evenodd"></path></g></svg>